<svg width="26" height="26" viewBox="0 0 26 26" xmlns="http://www.w3.org/2000/svg">
<path d="M2.61479 0C1.18293 0 0.018489 1.16532 0.018489 2.59826V18.1878C0.018489 19.6208 1.18293 20.7861 2.61479 20.7861H11.7018V23.3843H1.31664C1.14462 23.3819 0.973831 23.4137 0.8142 23.4779C0.654568 23.5421 0.509278 23.6374 0.386772 23.7583C0.264266 23.8792 0.166987 24.0232 0.10059 24.182C0.0341922 24.3409 0 24.5113 0 24.6835C0 24.8556 0.0341922 25.0261 0.10059 25.1849C0.166987 25.3438 0.264266 25.4878 0.386772 25.6087C0.509278 25.7295 0.654568 25.8248 0.8142 25.889C0.973831 25.9532 1.14462 25.985 1.31664 25.9826H12.782C12.9221 26.0058 13.0652 26.0058 13.2054 25.9826H24.6834C24.8554 25.985 25.0262 25.9532 25.1858 25.889C25.3454 25.8248 25.4907 25.7295 25.6132 25.6087C25.7357 25.4878 25.833 25.3438 25.8994 25.1849C25.9658 25.0261 26 24.8556 26 24.6835C26 24.5113 25.9658 24.3409 25.8994 24.182C25.833 24.0232 25.7357 23.8792 25.6132 23.7583C25.4907 23.6374 25.3454 23.5421 25.1858 23.4779C25.0262 23.4137 24.8554 23.3819 24.6834 23.3843H14.2982V20.7861H23.3852C24.8171 20.7861 25.9815 19.6208 25.9815 18.1878V5.19652C25.9815 3.76358 24.8171 2.59826 23.3852 2.59826H13L10.4037 0H2.61479Z" />
</svg>
