<svg width="30" height="30" viewBox="0 0 30 30" xmlns="http://www.w3.org/2000/svg">
<path d="M5.625 5.625C5.625 4.63044 6.02009 3.67661 6.72335 2.97335C7.42661 2.27009 8.38044 1.875 9.375 1.875C10.3696 1.875 11.3234 2.27009 12.0267 2.97335C12.7299 3.67661 13.125 4.63044 13.125 5.625C13.125 6.61956 12.7299 7.57339 12.0267 8.27665C11.3234 8.97991 10.3696 9.375 9.375 9.375C8.38044 9.375 7.42661 8.97991 6.72335 8.27665C6.02009 7.57339 5.625 6.61956 5.625 5.625Z" />
<path d="M18.3356 8.5952L18.4143 8.6552C19.2099 9.2449 20.2064 9.49598 21.1864 9.35366C22.1664 9.21133 23.0503 8.68716 23.6452 7.89552C24.2402 7.10388 24.4978 6.10905 24.362 5.12814C24.2261 4.14723 23.7078 3.25987 22.9201 2.65972C22.1324 2.05957 21.1393 1.79536 20.1575 1.92473C19.1757 2.05411 18.2849 2.56657 17.6796 3.35029C17.0743 4.13401 16.8035 5.12535 16.9264 6.10797C17.0493 7.09059 17.5559 7.98471 18.3356 8.5952Z" />
<path d="M11.7522 11.2498C11.9877 10.8038 12.3107 10.41 12.702 10.0918C13.0932 9.77356 13.5446 9.53752 14.0292 9.39779C14.5137 9.25806 15.0215 9.21751 15.5221 9.27855C16.0227 9.33959 16.5058 9.50098 16.9426 9.75306C17.3794 10.0051 17.7609 10.3427 18.0642 10.7456C18.3675 11.1485 18.5864 11.6085 18.7078 12.098C18.8293 12.5874 18.8507 13.0964 18.7709 13.5943C18.6911 14.0923 18.5117 14.569 18.2434 14.996C17.7273 15.8175 16.9128 16.407 15.9712 16.6406C15.0296 16.8743 14.034 16.7338 13.1937 16.2489C12.3534 15.7639 11.7338 14.9722 11.465 14.04C11.1962 13.1078 11.2991 12.1077 11.7522 11.2498Z" />
<path d="M4.6875 11.25H9.69375C9.4875 11.8369 9.375 12.4687 9.375 13.125C9.375 14.565 9.91687 15.8812 10.8075 16.875H10.3125C9.34582 16.8749 8.40272 17.1735 7.61228 17.73C6.82185 18.2865 6.22271 19.0736 5.89687 19.9837C5.2675 19.7309 4.67822 19.388 4.1475 18.9656C2.7375 17.8312 1.875 16.155 1.875 14.0625C1.875 13.3166 2.17132 12.6012 2.69876 12.0738C3.22621 11.5463 3.94158 11.25 4.6875 11.25Z" />
<path d="M19.6871 16.875C21.7215 16.875 23.454 18.1706 24.1009 19.9837C24.7384 19.7231 25.329 19.3837 25.8521 18.9656C27.2621 17.8312 28.1246 16.155 28.1246 14.0625C28.1246 13.3166 27.8283 12.6012 27.3009 12.0738C26.7734 11.5463 26.0581 11.25 25.3121 11.25H20.3059C20.5121 11.8369 20.6246 12.4687 20.6246 13.125C20.6264 14.509 20.1161 15.8447 19.1921 16.875H19.6871Z" />
<path d="M22.2881 20.49C22.425 20.82 22.5 21.1838 22.5 21.5625C22.5 23.655 21.6394 25.3313 20.2275 26.4656C18.8381 27.5813 16.9744 28.125 15 28.125C13.0256 28.125 11.1619 27.5813 9.77251 26.4656C8.36251 25.3313 7.50001 23.655 7.50001 21.5625C7.49902 21.1929 7.57109 20.8267 7.71208 20.485C7.85307 20.1434 8.0602 19.8329 8.32157 19.5716C8.58293 19.3102 8.89337 19.1031 9.23504 18.9621C9.57672 18.8211 9.94289 18.749 10.3125 18.75H19.6875C20.2446 18.7499 20.7891 18.9152 21.2521 19.225C21.7151 19.5347 22.0757 19.975 22.2881 20.49Z" />
</svg>
