<svg width="16" height="16" viewBox="0 0 16 16" fill="none" xmlns="http://www.w3.org/2000/svg">
<path d="M2.375 2.375C2.375 1.77826 2.61205 1.20597 3.03401 0.78401C3.45597 0.362053 4.02826 0.125 4.625 0.125C5.22174 0.125 5.79403 0.362053 6.21599 0.78401C6.63795 1.20597 6.875 1.77826 6.875 2.375C6.875 2.97174 6.63795 3.54403 6.21599 3.96599C5.79403 4.38795 5.22174 4.625 4.625 4.625C4.02826 4.625 3.45597 4.38795 3.03401 3.96599C2.61205 3.54403 2.375 2.97174 2.375 2.375Z" fill="white"/>
<path d="M9.99962 4.15695L10.0469 4.19295C10.5242 4.54677 11.1221 4.69742 11.7101 4.61202C12.2981 4.52663 12.8284 4.21212 13.1854 3.73714C13.5424 3.26216 13.697 2.66526 13.6155 2.07671C13.5339 1.48817 13.2229 0.955753 12.7503 0.595663C12.2777 0.235574 11.6818 0.0770437 11.0928 0.154669C10.5037 0.232295 9.96925 0.539774 9.60605 1.01C9.24284 1.48023 9.08038 2.07504 9.15412 2.66461C9.22786 3.25418 9.5318 3.79065 9.99962 4.15695Z" fill="white"/>
<path d="M6.04947 5.74995C6.19077 5.48238 6.38459 5.24606 6.61933 5.05514C6.85407 4.86421 7.12491 4.72259 7.41565 4.63875C7.70639 4.55491 8.01105 4.53058 8.31141 4.5672C8.61177 4.60383 8.90166 4.70066 9.16373 4.85191C9.4258 5.00316 9.65468 5.20571 9.83666 5.44746C10.0186 5.6892 10.15 5.96517 10.2229 6.25885C10.2957 6.55253 10.3086 6.85789 10.2607 7.15667C10.2128 7.45544 10.1052 7.74149 9.94422 7.9977C9.63452 8.49059 9.14586 8.84428 8.58087 8.98445C8.01589 9.12463 7.41857 9.04038 6.9144 8.74941C6.41023 8.45844 6.03844 7.98339 5.87716 7.42407C5.71587 6.86475 5.77763 6.26469 6.04947 5.74995Z" fill="white"/>
<path d="M1.8125 5.75H4.81625C4.6925 6.10212 4.625 6.48125 4.625 6.875C4.625 7.739 4.95012 8.52875 5.4845 9.125H5.1875C4.60749 9.12492 4.04163 9.30409 3.56737 9.63798C3.09311 9.97188 2.73363 10.4442 2.53813 10.9902C2.1605 10.8386 1.80693 10.6328 1.4885 10.3794C0.6425 9.69875 0.125 8.693 0.125 7.4375C0.125 6.98995 0.30279 6.56072 0.619257 6.24426C0.935725 5.92779 1.36495 5.75 1.8125 5.75Z" fill="white"/>
<path d="M10.8126 9.125C12.0333 9.125 13.0728 9.90237 13.4609 10.9902C13.8434 10.8339 14.1978 10.6302 14.5116 10.3794C15.3576 9.69875 15.8751 8.693 15.8751 7.4375C15.8751 6.98995 15.6973 6.56072 15.3809 6.24426C15.0644 5.92779 14.6352 5.75 14.1876 5.75H11.1839C11.3076 6.10212 11.3751 6.48125 11.3751 6.875C11.3762 7.70538 11.07 8.5068 10.5156 9.125H10.8126Z" fill="white"/>
<path d="M12.3729 11.294C12.455 11.492 12.5 11.7103 12.5 11.9375C12.5 13.193 11.9836 14.1988 11.1365 14.8794C10.3029 15.5488 9.18463 15.875 8.00001 15.875C6.81538 15.875 5.69713 15.5488 4.86351 14.8794C4.01751 14.1988 3.50001 13.193 3.50001 11.9375C3.49941 11.7157 3.54266 11.496 3.62725 11.291C3.71184 11.086 3.83612 10.8998 3.99294 10.7429C4.14976 10.5861 4.33602 10.4618 4.54103 10.3773C4.74603 10.2927 4.96573 10.2494 5.18751 10.25H10.8125C11.1467 10.2499 11.4735 10.3491 11.7513 10.535C12.0291 10.7208 12.2454 10.985 12.3729 11.294Z" fill="white"/>
</svg>
