<svg width="24" height="24" viewBox="0 0 24 24" xmlns="http://www.w3.org/2000/svg">
<path id="Vector" fill-rule="evenodd" clip-rule="evenodd" d="M19.7374 4.26256C19.054 3.57915 17.946 3.57915 17.2626 4.26256L16.2929 5.23223L18.7678 7.70711L19.7374 6.73744C20.4209 6.05402 20.4209 4.94598 19.7374 4.26256ZM20.7981 7.7981C22.0673 6.52889 22.0673 4.47111 20.7981 3.2019C19.5289 1.9327 17.4711 1.9327 16.2019 3.2019L2.46972 16.9341C2.32907 17.0747 2.25005 17.2655 2.25005 17.4644V21.0355C2.25005 21.4497 2.58584 21.7855 3.00005 21.7855H6.50005C6.69897 21.7855 6.88973 21.7065 7.03038 21.5658L20.7981 7.7981ZM17.7071 8.76777L15.2322 6.29289L3.75005 17.7751V20.2855H6.18939L17.7071 8.76777Z" />
</svg>
