<svg width="44" height="28" viewBox="0 0 44 28" fill="none" xmlns="http://www.w3.org/2000/svg">
<path fill-rule="evenodd" clip-rule="evenodd" d="M27.2302 4.92334H8.59856C6.67059 4.92334 5.10205 6.49187 5.10205 8.41984V23.1052H34.4727V15.9991C30.2072 15.3159 26.9482 11.6191 26.9482 7.1611C26.9482 6.3884 27.0461 5.63857 27.2302 4.92334ZM2.30485 28.0003H37.2699C38.0419 28.0003 38.6685 27.3737 38.6685 26.6017C38.6685 25.8296 38.0419 25.2031 37.2699 25.2031H2.30485C1.53282 25.2031 0.90625 25.8296 0.90625 26.6017C0.90625 27.3737 1.53282 28.0003 2.30485 28.0003Z" fill="black"/>
<path fill-rule="evenodd" clip-rule="evenodd" d="M35.8994 14.3217C39.8542 14.3217 43.0602 11.1157 43.0602 7.16084C43.0602 3.20602 39.8542 0 35.8994 0C31.9445 0 28.7385 3.20602 28.7385 7.16084C28.7385 11.1157 31.9445 14.3217 35.8994 14.3217ZM35.0042 5.93285L35.0042 10.8433C35.0042 11.337 35.4048 11.7376 35.8992 11.7383C36.3929 11.7383 36.7942 11.337 36.7942 10.8433L36.7942 5.93285L38.431 7.56966C38.7804 7.91905 39.3475 7.91905 39.6969 7.56966C40.0463 7.22027 40.0463 6.65315 39.6969 6.30376L36.5321 3.13901C36.1827 2.78962 35.6156 2.78962 35.2662 3.139L32.1015 6.30376C31.7521 6.65315 31.7521 7.22027 32.1015 7.56966C32.4509 7.91905 33.018 7.91905 33.3674 7.56966L35.0042 5.93285Z" fill="black"/>
</svg>
