<svg width="32" height="33" viewBox="0 0 32 33" fill="none" xmlns="http://www.w3.org/2000/svg">
<path fill-rule="evenodd" clip-rule="evenodd" d="M0 9.84211C0 9.37702 0.377023 9 0.842105 9H30.5179C30.983 9 31.36 9.37702 31.36 9.84211V27.8295C31.36 30.1549 29.4749 32.04 27.1495 32.04H4.21053C1.88512 32.04 0 30.1549 0 27.8295V9.84211ZM8 15.8C8 15.3582 8.35817 15 8.8 15H18.2C18.6418 15 19 15.3582 19 15.8V17.6C19 17.8209 18.8209 18 18.6 18H8.4C8.17908 18 8 17.8209 8 17.6V15.8ZM18.2 26C18.6418 26 19 25.6418 19 25.2V23.4C19 23.1791 18.8209 23 18.6 23L8.4 23C8.17908 23 8 23.1791 8 23.4V25.2C8 25.6418 8.35817 26 8.8 26H18.2ZM8 19.4C8 19.1791 8.17908 19 8.4 19H18.6C18.8209 19 19 19.1791 19 19.4V21.6C19 21.8209 18.8209 22 18.6 22H8.4C8.17908 22 8 21.8209 8 21.6V19.4ZM20.8 15C20.3582 15 20 15.3582 20 15.8V17.2C20 17.6418 20.3582 18 20.8 18H22.2C22.6418 18 23 17.6418 23 17.2V15.8C23 15.3582 22.6418 15 22.2 15H20.8ZM23 25.2C23 25.6418 22.6418 26 22.2 26H20.8C20.3582 26 20 25.6418 20 25.2V23.8C20 23.3582 20.3582 23 20.8 23H22.2C22.6418 23 23 23.3582 23 23.8V25.2ZM20.8 19C20.3582 19 20 19.3582 20 19.8V21.2C20 21.6418 20.3582 22 20.8 22H22.2C22.6418 22 23 21.6418 23 21.2V19.8C23 19.3582 22.6418 19 22.2 19H20.8Z" fill="black"/>
<path fill-rule="evenodd" clip-rule="evenodd" d="M4.21053 0C1.88512 0 0 1.88512 0 4.21053V6.19789C0 6.66298 0.377025 7.04 0.842107 7.04H30.5179C30.983 7.04 31.36 6.66298 31.36 6.19789V4.21053C31.36 1.88512 29.4749 0 27.1495 0H4.21053ZM15.68 3.19984C15.1498 3.19984 14.72 3.62964 14.72 4.15984C14.72 4.69003 15.1498 5.11984 15.68 5.11984H27.84C28.3702 5.11984 28.8 4.69003 28.8 4.15984C28.8 3.62964 28.3702 3.19984 27.84 3.19984H15.68ZM2.56009 4.15984C2.56009 3.62964 2.9899 3.19984 3.52009 3.19984H4.80009C5.33028 3.19984 5.76009 3.62964 5.76009 4.15984C5.76009 4.69003 5.33029 5.11984 4.80009 5.11984H3.52009C2.9899 5.11984 2.56009 4.69003 2.56009 4.15984ZM7.36014 3.19984C6.82995 3.19984 6.40014 3.62964 6.40014 4.15984C6.40014 4.69003 6.82995 5.11984 7.36014 5.11984H8.64014C9.17033 5.11984 9.60014 4.69003 9.60014 4.15984C9.60014 3.62964 9.17033 3.19984 8.64014 3.19984H7.36014Z" fill="black"/>
</svg>
