<svg width="23" height="23" viewBox="0 0 23 23" xmlns="http://www.w3.org/2000/svg">
<path fill-rule="evenodd" clip-rule="evenodd" d="M10.1676 3.05176C9.32604 3.05176 8.60833 3.65951 8.46975 4.48817L8.30638 5.47084C8.28802 5.58084 8.20084 5.70917 8.0338 5.78984C7.71932 5.94083 7.4168 6.1155 7.12886 6.31234C6.97651 6.41776 6.82232 6.42784 6.71586 6.38842L5.78247 6.03826C5.40089 5.89548 4.98096 5.89256 4.59744 6.03004C4.21391 6.16752 3.89167 6.43647 3.68808 6.78901L2.84188 8.25292C2.63822 8.60525 2.56629 9.01832 2.63888 9.41864C2.71148 9.81896 2.92391 10.1806 3.23837 10.4392L4.00931 11.0735C4.0965 11.145 4.16533 11.2834 4.15065 11.4677C4.12449 11.8152 4.12449 12.1642 4.15065 12.5118C4.16441 12.6951 4.0965 12.8344 4.01022 12.9059L3.23837 13.5403C2.92391 13.7989 2.71148 14.1605 2.63888 14.5608C2.56629 14.9611 2.63822 15.3742 2.84188 15.7265L3.68808 17.1904C3.89182 17.5428 4.21412 17.8116 4.59763 17.9489C4.98115 18.0862 5.401 18.0831 5.78247 17.9403L6.71769 17.5901C6.82324 17.5507 6.97743 17.5617 7.1307 17.6653C7.41705 17.8614 7.719 18.0365 8.03472 18.1878C8.20175 18.2684 8.28894 18.3968 8.3073 18.5086L8.47066 19.4903C8.60925 20.319 9.32696 20.9268 10.1686 20.9268H11.861C12.7017 20.9268 13.4203 20.319 13.5589 19.4903L13.7222 18.5077C13.7406 18.3977 13.8269 18.2693 13.9948 18.1878C14.3105 18.0365 14.6125 17.8614 14.8988 17.6653C15.0521 17.5608 15.2063 17.5507 15.3118 17.5901L16.248 17.9403C16.6293 18.0825 17.0488 18.0852 17.432 17.9477C17.8151 17.8103 18.137 17.5416 18.3405 17.1895L19.1877 15.7256C19.3913 15.3733 19.4632 14.9602 19.3906 14.5599C19.318 14.1596 19.1056 13.7979 18.7912 13.5393L18.0202 12.905C17.933 12.8335 17.8642 12.6951 17.8789 12.5108C17.905 12.1633 17.905 11.8143 17.8789 11.4668C17.8642 11.2834 17.933 11.1441 18.0193 11.0726L18.7902 10.4383C19.44 9.90476 19.608 8.98076 19.1877 8.25201L18.3415 6.78809C18.1377 6.43571 17.8154 6.16696 17.4319 6.02965C17.0484 5.89235 16.6285 5.8954 16.2471 6.03826L15.3109 6.38842C15.2063 6.42784 15.0521 6.41684 14.8988 6.31234C14.6112 6.11553 14.309 5.94086 13.9948 5.78984C13.8269 5.71009 13.7406 5.58176 13.7222 5.47084L13.558 4.48817C13.491 4.08673 13.2836 3.72204 12.9727 3.459C12.6618 3.19597 12.2675 3.05166 11.86 3.05176H10.1686H10.1676ZM11.0138 15.4268C11.9266 15.4268 12.8021 15.0646 13.4475 14.4199C14.0929 13.7753 14.4555 12.9009 14.4555 11.9893C14.4555 11.0776 14.0929 10.2032 13.4475 9.55858C12.8021 8.91392 11.9266 8.55176 11.0138 8.55176C10.1011 8.55176 9.22564 8.91392 8.5802 9.55858C7.93476 10.2032 7.57215 11.0776 7.57215 11.9893C7.57215 12.9009 7.93476 13.7753 8.5802 14.4199C9.22564 15.0646 10.1011 15.4268 11.0138 15.4268Z" />
</svg>
