<svg width="16" height="16" viewBox="0 0 16 16" xmlns="http://www.w3.org/2000/svg">
<path fill-rule="evenodd" clip-rule="evenodd" d="M4.66699 2.16699C3.28628 2.16699 2.16699 3.28628 2.16699 4.66699C2.16699 6.0477 3.28628 7.16699 4.66699 7.16699C5.89228 7.16699 6.91168 6.28552 7.12567 5.12211C7.18883 5.15093 7.25904 5.16699 7.33301 5.16699H13.333C13.6091 5.16699 13.833 4.94313 13.833 4.66699C13.833 4.39085 13.6091 4.16699 13.333 4.16699H7.33301C7.25904 4.16699 7.18883 4.18305 7.12567 4.21188C6.91168 3.04847 5.89228 2.16699 4.66699 2.16699ZM3.16699 4.66699C3.16699 3.83857 3.83857 3.16699 4.66699 3.16699C5.49542 3.16699 6.16699 3.83857 6.16699 4.66699C6.16699 5.49542 5.49542 6.16699 4.66699 6.16699C3.83857 6.16699 3.16699 5.49542 3.16699 4.66699Z" />
<path fill-rule="evenodd" clip-rule="evenodd" d="M3.33301 10.833C3.05687 10.833 2.83301 11.0569 2.83301 11.333C2.83301 11.6091 3.05687 11.833 3.33301 11.833H8.88302C9.11465 12.9741 10.1235 13.833 11.333 13.833C12.7137 13.833 13.833 12.7137 13.833 11.333C13.833 9.9523 12.7137 8.83301 11.333 8.83301C10.1235 8.83301 9.11465 9.69189 8.88302 10.833H3.33301ZM11.333 12.833C10.5046 12.833 9.83301 12.1614 9.83301 11.333C9.83301 10.5046 10.5046 9.83301 11.333 9.83301C12.1614 9.83301 12.833 10.5046 12.833 11.333C12.833 12.1614 12.1614 12.833 11.333 12.833Z" />
</svg>
