<svg width="24" height="24" viewBox="0 0 24 24" xmlns="http://www.w3.org/2000/svg">
<path d="M2.273 5.625C3.09435 4.89854 4.15348 4.4983 5.25 4.5H18.75C19.891 4.5 20.933 4.925 21.727 5.625C21.6356 4.89994 21.2828 4.23315 20.7346 3.74982C20.1865 3.2665 19.4808 2.99987 18.75 3H5.25C4.51921 2.99987 3.81349 3.2665 3.26536 3.74982C2.71722 4.23315 2.36435 4.89994 2.273 5.625ZM2.273 8.625C3.09435 7.89854 4.15348 7.4983 5.25 7.5H18.75C19.891 7.5 20.933 7.925 21.727 8.625C21.6356 7.89994 21.2828 7.23315 20.7346 6.74983C20.1865 6.2665 19.4808 5.99987 18.75 6H5.25C4.51921 5.99987 3.81349 6.2665 3.26536 6.74983C2.71722 7.23315 2.36435 7.89994 2.273 8.625ZM5.25 9C4.45435 9 3.69129 9.31607 3.12868 9.87868C2.56607 10.4413 2.25 11.2044 2.25 12V18C2.25 18.7956 2.56607 19.5587 3.12868 20.1213C3.69129 20.6839 4.45435 21 5.25 21H18.75C19.5456 21 20.3087 20.6839 20.8713 20.1213C21.4339 19.5587 21.75 18.7956 21.75 18V12C21.75 11.2044 21.4339 10.4413 20.8713 9.87868C20.3087 9.31607 19.5456 9 18.75 9H15C14.8011 9 14.6103 9.07902 14.4697 9.21967C14.329 9.36032 14.25 9.55109 14.25 9.75C14.25 10.3467 14.0129 10.919 13.591 11.341C13.169 11.7629 12.5967 12 12 12C11.4033 12 10.831 11.7629 10.409 11.341C9.98705 10.919 9.75 10.3467 9.75 9.75C9.75 9.55109 9.67098 9.36032 9.53033 9.21967C9.38968 9.07902 9.19891 9 9 9H5.25Z" />
</svg>
