<svg width="17" height="16" viewBox="0 0 17 16" xmlns="http://www.w3.org/2000/svg">
<path fill-rule="evenodd" clip-rule="evenodd" d="M8.50039 0.799805C11.5932 0.799805 14.1004 2.2318 14.1004 3.9998C14.1004 5.7678 11.5932 7.1998 8.50039 7.1998C5.40759 7.1998 2.90039 5.7678 2.90039 3.9998C2.90039 2.2318 5.40759 0.799805 8.50039 0.799805ZM13.0556 7.3038C13.4268 7.0926 13.7836 6.8374 14.1004 6.5422V7.9998C14.1004 9.7678 11.5932 11.1998 8.50039 11.1998C5.40759 11.1998 2.90039 9.7678 2.90039 7.9998V6.5422C3.21719 6.8382 3.57399 7.0926 3.94519 7.3046C5.17079 8.0046 6.78359 8.3998 8.50039 8.3998C10.2172 8.3998 11.83 8.0046 13.0556 7.3038ZM2.90039 10.543V11.9998C2.90039 13.7678 5.40759 15.1998 8.50039 15.1998C11.5932 15.1998 14.1004 13.7678 14.1004 11.9998V10.5422C13.7836 10.8382 13.4268 11.0926 13.0556 11.3046C11.83 12.0046 10.2172 12.3998 8.50039 12.3998C6.78359 12.3998 5.17079 12.0046 3.94519 11.3038C3.56876 11.0913 3.21817 10.836 2.90039 10.543Z" />
</svg>
