<svg width="20" height="20" viewBox="0 0 20 20" xmlns="http://www.w3.org/2000/svg">
<path d="M5.60491 4.20777C5.42833 4.62795 5.3309 5.08852 5.3309 5.57147V12.7145C5.3309 14.6869 6.95612 16.2859 8.96092 16.2859H14.0608C13.8348 16.43 13.5889 16.5515 13.3251 16.646L7.35563 18.7836C5.47173 19.4583 3.38867 18.5026 2.70298 16.6491L0.219905 9.93685C-0.465779 8.08332 0.505568 6.03385 2.38947 5.35922L5.60491 4.20777Z" />
<path fill-rule="evenodd" clip-rule="evenodd" d="M6.23821 4.67862C6.23821 3.19926 7.45712 2 8.96073 2H16.2775C17.7811 2 19 3.19926 19 4.67862V12.7145C19 14.1938 17.7811 15.3931 16.2775 15.3931H8.96073C7.45712 15.3931 6.23821 14.1938 6.23821 12.7145V4.67862ZM8.05322 6.24115C8.05322 5.87131 8.35795 5.57149 8.73385 5.57149H13.7251C14.101 5.57149 14.4058 5.87131 14.4058 6.24115C14.4058 6.61099 14.101 6.9108 13.7251 6.9108H8.73385C8.35795 6.9108 8.05322 6.61099 8.05322 6.24115ZM8.73385 8.25011C8.35795 8.25011 8.05322 8.54993 8.05322 8.91977C8.05322 9.28961 8.35795 9.58942 8.73385 9.58942H12.8176C13.1935 9.58942 13.4983 9.28961 13.4983 8.91977C13.4983 8.54993 13.1935 8.25011 12.8176 8.25011H8.73385Z" />
</svg>
