<svg width="16" height="16" viewBox="0 0 16 16" xmlns="http://www.w3.org/2000/svg">
<g clip-path="url(#clip0_1661_49682)">
<path d="M10.3697 3.26834C10.3697 2.88655 10.6167 2.56132 10.8967 2.30019C11.1569 2.05792 11.3124 1.74965 11.3124 1.41405C11.3124 0.633495 10.4687 0 9.42701 0C8.38532 0 7.54161 0.633495 7.54161 1.41405C7.54161 1.75531 7.70281 2.06829 7.97148 2.31244C8.24486 2.56226 8.48431 2.87806 8.48431 3.24949C8.48529 3.37437 8.46063 3.49813 8.41185 3.6131C8.36307 3.72807 8.29121 3.8318 8.20071 3.91788C8.11022 4.00395 8.00303 4.07053 7.88576 4.1135C7.7685 4.15647 7.64366 4.17491 7.51898 4.16768C6.56855 4.10775 5.62076 4.01152 4.67768 3.87921C4.56927 3.86399 4.4588 3.87415 4.35499 3.9089C4.25117 3.94364 4.15684 4.00202 4.07943 4.07943C4.00202 4.15684 3.94364 4.25117 3.9089 4.35499C3.87415 4.4588 3.86399 4.56927 3.87921 4.67768C4.01119 5.61378 4.10735 6.56214 4.16768 7.51898C4.17491 7.64366 4.15647 7.7685 4.1135 7.88576C4.07053 8.00303 4.00395 8.11022 3.91788 8.20071C3.8318 8.29121 3.72807 8.36307 3.6131 8.41185C3.49813 8.46063 3.37437 8.48529 3.24949 8.48431C2.87901 8.48431 2.56226 8.2458 2.31244 7.97148C2.06829 7.70186 1.75531 7.54161 1.41405 7.54161C0.633495 7.54161 0 8.38532 0 9.42701C0 10.4687 0.633495 11.3124 1.41405 11.3124C1.74965 11.3124 2.05792 11.1569 2.30019 10.8967C2.56037 10.6167 2.88655 10.3697 3.26834 10.3697C3.39499 10.3687 3.52051 10.3934 3.63739 10.4422C3.75427 10.4909 3.86009 10.5628 3.94849 10.6535C4.03689 10.7442 4.10605 10.8518 4.15181 10.9699C4.19758 11.088 4.21901 11.2141 4.21481 11.3407C4.16998 12.5181 4.06962 13.6928 3.91409 14.8607C3.88939 15.0459 3.93898 15.2333 4.05203 15.3821C4.16508 15.5308 4.33239 15.6287 4.51742 15.6545C5.50726 15.7921 6.50746 15.892 7.51898 15.9543C7.64375 15.9612 7.76863 15.9425 7.8859 15.8994C8.00317 15.8562 8.11034 15.7894 8.20081 15.7032C8.29127 15.617 8.36309 15.5131 8.41185 15.3981C8.46061 15.283 8.48527 15.1592 8.48431 15.0342C8.48431 14.6628 8.24486 14.346 7.97053 14.0962C7.70281 13.8511 7.54161 13.5391 7.54161 13.1978C7.54161 12.4173 8.38532 11.7838 9.42701 11.7838C10.4687 11.7838 11.3124 12.4173 11.3124 13.1978C11.3124 13.5334 11.1569 13.8417 10.8967 14.0839C10.6167 14.3441 10.3697 14.6703 10.3697 15.0521C10.3688 15.1788 10.3934 15.3044 10.4422 15.4213C10.4909 15.5382 10.5628 15.6441 10.6535 15.7326C10.7441 15.821 10.8517 15.8903 10.9698 15.9362C11.0879 15.982 11.2141 16.0036 11.3407 15.9995C12.6011 15.9524 13.8473 15.8468 15.0747 15.6818C15.2285 15.6613 15.3713 15.5907 15.481 15.481C15.5907 15.3713 15.6613 15.2285 15.6818 15.0747C15.8468 13.8473 15.9533 12.6011 15.9995 11.3407C16.0036 11.2141 15.982 11.0879 15.9362 10.9698C15.8903 10.8517 15.821 10.7441 15.7326 10.6535C15.6441 10.5628 15.5382 10.4909 15.4213 10.4422C15.3044 10.3934 15.1788 10.3688 15.0521 10.3697C14.6703 10.3697 14.3451 10.6167 14.0839 10.8967C13.8417 11.1569 13.5334 11.3124 13.1978 11.3124C12.4173 11.3124 11.7838 10.4687 11.7838 9.42701C11.7838 8.38532 12.4173 7.54161 13.1978 7.54161C13.5391 7.54161 13.852 7.70186 14.0962 7.97053C14.346 8.24486 14.6628 8.48431 15.0342 8.48431C15.1592 8.48527 15.283 8.46061 15.3981 8.41185C15.5131 8.36309 15.617 8.29127 15.7032 8.20081C15.7894 8.11034 15.8562 8.00317 15.8994 7.8859C15.9425 7.76863 15.9612 7.64375 15.9543 7.51898C15.8933 6.51495 15.7933 5.51368 15.6545 4.51742C15.6287 4.33239 15.5308 4.16508 15.3821 4.05203C15.2333 3.93898 15.0459 3.88939 14.8607 3.91409C13.7031 4.0687 12.5294 4.16957 11.3407 4.21481C11.2141 4.21901 11.088 4.19758 10.9699 4.15181C10.8518 4.10605 10.7442 4.03689 10.6535 3.94849C10.5628 3.86009 10.4909 3.75427 10.4422 3.63739C10.3934 3.52051 10.3687 3.39499 10.3697 3.26834Z" />
</g>
<defs>
<clipPath id="clip0_1661_49682">
<rect width="16" height="16" />
</clipPath>
</defs>
</svg>
