<svg width="22" height="22" viewBox="0 0 22 22" xmlns="http://www.w3.org/2000/svg">
<path d="M19.9203 2.07963C19.4691 1.62846 18.8571 1.375 18.219 1.375C17.5809 1.375 16.9689 1.62846 16.5176 2.07963L15.4571 3.14022L18.8597 6.54288L19.9203 5.4823C20.3715 5.03105 20.6249 4.41907 20.6249 3.78097C20.6249 3.14286 20.3715 2.53088 19.9203 2.07963ZM17.8872 7.51547L14.4845 4.1128L6.78448 11.8128C6.21876 12.3782 5.8029 13.0758 5.57448 13.8423L4.84115 16.3035C4.80574 16.4223 4.8031 16.5485 4.83351 16.6686C4.86391 16.7888 4.92623 16.8984 5.01386 16.9861C5.1015 17.0737 5.2112 17.136 5.33135 17.1664C5.4515 17.1968 5.57763 17.1942 5.6964 17.1588L8.15765 16.4255C8.92419 16.1971 9.62171 15.7812 10.1872 15.2155L17.8872 7.51547Z" />
<path d="M4.8125 4.8125C4.08315 4.8125 3.38368 5.10223 2.86796 5.61796C2.35223 6.13368 2.0625 6.83315 2.0625 7.5625V17.1875C2.0625 17.9168 2.35223 18.6163 2.86796 19.132C3.38368 19.6478 4.08315 19.9375 4.8125 19.9375H14.4375C15.1668 19.9375 15.8663 19.6478 16.382 19.132C16.8978 18.6163 17.1875 17.9168 17.1875 17.1875V12.375C17.1875 12.1927 17.1151 12.0178 16.9861 11.8889C16.8572 11.7599 16.6823 11.6875 16.5 11.6875C16.3177 11.6875 16.1428 11.7599 16.0139 11.8889C15.8849 12.0178 15.8125 12.1927 15.8125 12.375V17.1875C15.8125 17.5522 15.6676 17.9019 15.4098 18.1598C15.1519 18.4176 14.8022 18.5625 14.4375 18.5625H4.8125C4.44783 18.5625 4.09809 18.4176 3.84023 18.1598C3.58237 17.9019 3.4375 17.5522 3.4375 17.1875V7.5625C3.4375 7.19783 3.58237 6.84809 3.84023 6.59023C4.09809 6.33237 4.44783 6.1875 4.8125 6.1875H9.625C9.80734 6.1875 9.9822 6.11507 10.1111 5.98614C10.2401 5.8572 10.3125 5.68234 10.3125 5.5C10.3125 5.31766 10.2401 5.1428 10.1111 5.01386C9.9822 4.88493 9.80734 4.8125 9.625 4.8125H4.8125Z" />
</svg>
