<svg width="20" height="17" viewBox="0 0 20 17" xmlns="http://www.w3.org/2000/svg">
<path d="M3.98289 0.633789C3.47173 0.633789 2.9815 0.836601 2.62005 1.19761C2.2586 1.55862 2.05554 2.04825 2.05554 2.55879V5.58599L2.17008 5.58379H17.3598C17.3984 5.58379 17.4369 5.58379 17.4743 5.58599V4.75879C17.4743 4.24825 17.2713 3.75862 16.9098 3.39761C16.5484 3.0366 16.0582 2.83379 15.547 2.83379H11.3222C11.2861 2.83385 11.2502 2.82679 11.2168 2.81302C11.1833 2.79924 11.1529 2.77901 11.1273 2.75349L9.57001 1.19809C9.20876 0.837023 8.71871 0.634044 8.20765 0.633789H3.98289ZM2.17008 7.23379C1.8684 7.2337 1.5709 7.30435 1.30154 7.44005C1.03218 7.57576 0.79848 7.77272 0.619239 8.01509C0.439998 8.25746 0.320226 8.53847 0.269561 8.83551C0.218896 9.13254 0.238754 9.43731 0.327536 9.72529L1.8529 14.6753C1.97414 15.0686 2.21839 15.4127 2.54979 15.6572C2.8812 15.9017 3.28233 16.0337 3.69434 16.0338H15.8344C16.2466 16.0339 16.648 15.902 16.9797 15.6575C17.3113 15.413 17.5557 15.0688 17.677 14.6753L19.2013 9.72529C19.29 9.4374 19.3099 9.13273 19.2593 8.83578C19.2087 8.53882 19.089 8.25788 18.9099 8.01553C18.7308 7.77318 18.4972 7.5762 18.228 7.44043C17.9588 7.30465 17.6614 7.23388 17.3598 7.23379H2.17008Z" />
</svg>
