<svg width="16" height="16" viewBox="0 0 16 16" xmlns="http://www.w3.org/2000/svg">
<path fill-rule="evenodd" clip-rule="evenodd" d="M2.66667 1.5C2.02233 1.5 1.5 2.02233 1.5 2.66667V7.33333C1.5 7.97767 2.02233 8.5 2.66667 8.5H6C6.64433 8.5 7.16667 7.97767 7.16667 7.33333V2.66667C7.16667 2.02233 6.64433 1.5 6 1.5H2.66667ZM2.5 2.66667C2.5 2.57462 2.57462 2.5 2.66667 2.5H6C6.09205 2.5 6.16667 2.57462 6.16667 2.66667V7.33333C6.16667 7.42538 6.09205 7.5 6 7.5H2.66667C2.57462 7.5 2.5 7.42538 2.5 7.33333V2.66667Z" />
<path fill-rule="evenodd" clip-rule="evenodd" d="M9.99967 1.5C9.35534 1.5 8.83301 2.02233 8.83301 2.66667V4.66667C8.83301 5.311 9.35534 5.83333 9.99967 5.83333H13.333C13.9773 5.83333 14.4997 5.311 14.4997 4.66667V2.66667C14.4997 2.02233 13.9773 1.5 13.333 1.5H9.99967ZM9.83301 2.66667C9.83301 2.57462 9.90763 2.5 9.99967 2.5H13.333C13.4251 2.5 13.4997 2.57462 13.4997 2.66667V4.66667C13.4997 4.75871 13.4251 4.83333 13.333 4.83333H9.99967C9.90763 4.83333 9.83301 4.75871 9.83301 4.66667V2.66667Z" />
<path fill-rule="evenodd" clip-rule="evenodd" d="M8.83301 8.66667C8.83301 8.02233 9.35534 7.5 9.99967 7.5H13.333C13.9773 7.5 14.4997 8.02233 14.4997 8.66667V13.3333C14.4997 13.9777 13.9773 14.5 13.333 14.5H9.99967C9.35534 14.5 8.83301 13.9777 8.83301 13.3333V8.66667ZM9.99967 8.5C9.90763 8.5 9.83301 8.57462 9.83301 8.66667V13.3333C9.83301 13.4254 9.90763 13.5 9.99967 13.5H13.333C13.4251 13.5 13.4997 13.4254 13.4997 13.3333V8.66667C13.4997 8.57462 13.4251 8.5 13.333 8.5H9.99967Z" />
<path fill-rule="evenodd" clip-rule="evenodd" d="M2.66667 10.167C2.02233 10.167 1.5 10.6893 1.5 11.3337V13.3337C1.5 13.978 2.02233 14.5003 2.66667 14.5003H6C6.64433 14.5003 7.16667 13.978 7.16667 13.3337V11.3337C7.16667 10.6893 6.64433 10.167 6 10.167H2.66667ZM2.5 11.3337C2.5 11.2416 2.57462 11.167 2.66667 11.167H6C6.09205 11.167 6.16667 11.2416 6.16667 11.3337V13.3337C6.16667 13.4257 6.09205 13.5003 6 13.5003H2.66667C2.57462 13.5003 2.5 13.4257 2.5 13.3337V11.3337Z" />
</svg>
