<svg width="17" height="16" viewBox="0 0 17 16" xmlns="http://www.w3.org/2000/svg">
<path fill-rule="evenodd" clip-rule="evenodd" d="M13.4083 2.84171C12.9526 2.3861 12.2139 2.3861 11.7583 2.84171L11.1119 3.48816L12.7618 5.13807L13.4083 4.49162C13.8639 4.03601 13.8639 3.29732 13.4083 2.84171ZM14.1154 5.19873C14.9615 4.3526 14.9615 2.98074 14.1154 2.1346C13.2692 1.28847 11.8974 1.28847 11.0512 2.1346L1.89645 11.2894C1.80268 11.3832 1.75 11.5103 1.75 11.6429V14.0237C1.75 14.2998 1.97386 14.5237 2.25 14.5237H4.58333C4.71594 14.5237 4.84312 14.471 4.93689 14.3772L14.1154 5.19873ZM12.0547 5.84518L10.4048 4.19526L2.75 11.85V13.5237H4.37623L12.0547 5.84518Z" />
</svg>
