<svg xmlns="http://www.w3.org/2000/svg" width="17" height="16"><g stroke="#fff" stroke-linecap="round" stroke-linejoin="round" clip-path="url(#a)"><path d="m11.7 5.334-1.6-2.667H6.9L5.3 5.334M6.9 2.667 5.3 0M.5 2.667l1.6 2.667M14.9 5.334l1.6-2.667M11.7 0l-1.6 2.667M10.1 13.333 11.7 16M16.5 13.334l-1.6-2.667M2.1 10.667.5 13.334M5.3 16l1.6-2.667M6.9 8h3.2M5.3 10.667l1.6 2.667h3.2l1.6-2.667"/><path d="M5.3 10.666H2.1L.5 8l1.6-2.667h3.2L6.9 8l-1.6 2.666ZM11.7 10.666h3.2L16.5 8l-1.6-2.667h-3.2L10.1 8l1.6 2.666Z"/></g><defs><clipPath id="a"><path d="M.5 0h16v16H.5z"/></clipPath></defs></svg>
