<svg width="20" height="20" viewBox="0 0 20 20" xmlns="http://www.w3.org/2000/svg">
<path fill-rule="evenodd" clip-rule="evenodd" d="M6.74625 2.06718C6.9691 1.93342 7.2582 2.00564 7.39196 2.22849L8.76214 4.5112H11.2391L12.6093 2.22849C12.7431 2.00564 13.0322 1.93342 13.255 2.06718C13.4779 2.20095 13.5501 2.49004 13.4163 2.71289L12.0547 4.98129L13.2788 7.02055H15.7588L17.1269 4.73981C17.2606 4.51691 17.5496 4.44461 17.7725 4.5783C17.9954 4.712 18.0677 5.00107 17.934 5.22397L16.5739 7.49153L17.934 9.75909C18.0234 9.9081 18.0234 10.0942 17.934 10.2432L16.5735 12.5115L17.934 14.7797C18.0677 15.0026 17.9954 15.2917 17.7725 15.4254C17.5496 15.5591 17.2606 15.4868 17.1269 15.2639L15.758 12.9818H13.2795L12.0558 15.0205L13.4163 17.2871C13.5501 17.51 13.4779 17.7991 13.255 17.9328C13.0322 18.0666 12.7431 17.9944 12.6093 17.7715L11.2413 15.4924H8.75997L7.39196 17.7715C7.2582 17.9944 6.9691 18.0666 6.74625 17.9328C6.5234 17.7991 6.45118 17.51 6.58494 17.2871L7.94542 15.0206L6.72167 12.9818H4.24313L2.87427 15.2639C2.74058 15.4868 2.4515 15.5591 2.22861 15.4254C2.00572 15.2917 1.93341 15.0026 2.06711 14.7797L3.42761 12.5115L2.06704 10.2432C1.97765 10.0942 1.97765 9.9081 2.06704 9.75909L3.42721 7.49147L2.06711 5.22397C1.93341 5.00107 2.00572 4.712 2.22861 4.5783C2.4515 4.44461 2.74058 4.51691 2.87427 4.73981L4.24232 7.02055H6.72243L7.9465 4.98125L6.58494 2.71289C6.45118 2.49004 6.5234 2.20095 6.74625 2.06718ZM12.4641 12.5115L11.2394 10.4711H8.76172L7.53709 12.5114L8.76146 14.5512H11.2398L12.4641 12.5115ZM11.2401 9.52991L12.4637 7.49148L11.2398 5.45243H8.76146L7.53747 7.49159L8.76095 9.52991H11.2401ZM4.24268 7.96179L3.01941 10.0012L4.24268 12.0405H6.72192L7.94604 10.0012L6.72192 7.96179H4.24268ZM12.055 10.0012L13.2791 7.96179H15.7584L16.9817 10.0012L15.7584 12.0405H13.2791L12.055 10.0012Z" />
</svg>
