<svg width="17" height="16" viewBox="0 0 17 16" fill="none" xmlns="http://www.w3.org/2000/svg">
<path fill-rule="evenodd" clip-rule="evenodd" d="M8.18325 0.082796C8.28026 0.0284833 8.38923 0 8.5 0C8.61077 0 8.71974 0.0284833 8.81675 0.082796L10.5668 1.06411C10.6448 1.1049 10.714 1.16118 10.7702 1.22962C10.8265 1.29806 10.8687 1.37726 10.8942 1.46255C10.9198 1.54783 10.9283 1.63746 10.9192 1.72614C10.9101 1.81482 10.8836 1.90073 10.8412 1.97881C10.7988 2.05688 10.7414 2.12553 10.6725 2.18068C10.6035 2.23584 10.5244 2.27638 10.4397 2.29992C10.3551 2.32345 10.2666 2.32949 10.1796 2.31769C10.0926 2.30589 10.0089 2.27648 9.93325 2.23121L8.5 1.42855L7.06675 2.23121C6.99114 2.27648 6.90736 2.30589 6.82037 2.31769C6.73338 2.32949 6.64494 2.32345 6.56028 2.29992C6.47563 2.27638 6.39648 2.23584 6.32753 2.18068C6.25857 2.12553 6.2012 2.05688 6.15882 1.97881C6.11645 1.90073 6.08991 1.81482 6.0808 1.72614C6.07168 1.63746 6.08017 1.54783 6.10576 1.46255C6.13134 1.37726 6.17351 1.29806 6.22976 1.22962C6.28601 1.16118 6.35521 1.1049 6.43325 1.06411L8.18325 0.082796ZM4.47762 2.92186C4.51924 2.99855 4.54557 3.08281 4.55511 3.16984C4.56466 3.25687 4.55724 3.34495 4.53327 3.42906C4.5093 3.51317 4.46925 3.59167 4.41541 3.66005C4.36158 3.72844 4.295 3.78538 4.2195 3.82762L3.51513 4.22228L4.2195 4.61694C4.37197 4.70228 4.48482 4.84566 4.53322 5.01552C4.58163 5.18538 4.56163 5.36782 4.47762 5.52271C4.39362 5.67759 4.25248 5.79223 4.08527 5.84141C3.91806 5.89058 3.73847 5.87026 3.586 5.78492L2.8125 5.35115V6.00003C2.8125 6.17684 2.74336 6.34641 2.62029 6.47143C2.49722 6.59645 2.3303 6.66669 2.15625 6.66669C1.9822 6.66669 1.81528 6.59645 1.69221 6.47143C1.56914 6.34641 1.5 6.17684 1.5 6.00003V4.22228C1.49998 4.10299 1.53147 3.98587 1.59118 3.88315C1.6509 3.78043 1.73665 3.69587 1.8395 3.63829L3.586 2.66053C3.73835 2.57509 3.91788 2.55462 4.08508 2.60363C4.25229 2.65264 4.39349 2.76711 4.47762 2.92186ZM12.5224 2.92186C12.564 2.84504 12.6201 2.77731 12.6874 2.72254C12.7548 2.66778 12.8322 2.62705 12.9151 2.60269C12.998 2.57834 13.0848 2.57083 13.1706 2.5806C13.2563 2.59037 13.3393 2.61723 13.4149 2.65964L15.1605 3.63829C15.2633 3.69587 15.3491 3.78043 15.4088 3.88315C15.4685 3.98587 15.5 4.10299 15.5 4.22228V6.00003C15.5 6.17684 15.4309 6.34641 15.3078 6.47143C15.1847 6.59645 15.0178 6.66669 14.8438 6.66669C14.6697 6.66669 14.5028 6.59645 14.3797 6.47143C14.2566 6.34641 14.1875 6.17684 14.1875 6.00003V5.35115L13.414 5.78492C13.3385 5.82718 13.2556 5.85392 13.1699 5.86361C13.0842 5.8733 12.9975 5.86576 12.9147 5.84141C12.7475 5.79223 12.6064 5.67759 12.5224 5.52271C12.4808 5.44602 12.4545 5.36175 12.4449 5.27473C12.4354 5.18771 12.4428 5.09963 12.4668 5.01552C12.5152 4.84566 12.628 4.70228 12.7805 4.61694L13.4858 4.22228L12.7805 3.82762C12.7049 3.78538 12.6382 3.7284 12.5843 3.65994C12.5304 3.59149 12.4903 3.5129 12.4663 3.42869C12.4423 3.34447 12.4349 3.25628 12.4446 3.16916C12.4542 3.08204 12.4806 2.9977 12.5224 2.92097V2.92186ZM6.17513 6.47469C6.21678 6.39795 6.27293 6.3303 6.34035 6.27562C6.40777 6.22095 6.48514 6.18031 6.56804 6.15604C6.65093 6.13176 6.73772 6.12433 6.82345 6.13417C6.90917 6.14401 6.99215 6.17092 7.06763 6.21336L8.5 7.01602L9.93325 6.21336C10.0089 6.16809 10.0926 6.13868 10.1796 6.12688C10.2666 6.11507 10.3551 6.12112 10.4397 6.14465C10.5244 6.16819 10.6035 6.20873 10.6725 6.26388C10.7414 6.31904 10.7988 6.38769 10.8412 6.46576C10.8836 6.54384 10.9101 6.62975 10.9192 6.71843C10.9283 6.8071 10.9198 6.89674 10.8942 6.98202C10.8687 7.0673 10.8265 7.14651 10.7702 7.21495C10.714 7.28338 10.6448 7.33966 10.5668 7.38046L9.15625 8.17155V9.55553C9.15625 9.73234 9.08711 9.90191 8.96404 10.0269C8.84097 10.1519 8.67405 10.2222 8.5 10.2222C8.32595 10.2222 8.15903 10.1519 8.03596 10.0269C7.91289 9.90191 7.84375 9.73234 7.84375 9.55553V8.17155L6.43325 7.38046C6.35775 7.33821 6.29117 7.28127 6.23734 7.21288C6.1835 7.1445 6.14345 7.06601 6.11948 6.98189C6.09551 6.89778 6.08809 6.8097 6.09763 6.72267C6.10718 6.63564 6.13351 6.55138 6.17513 6.47469ZM2.15625 9.33331C2.3303 9.33331 2.49722 9.40355 2.62029 9.52857C2.74336 9.65359 2.8125 9.82316 2.8125 9.99997V11.3839L4.2195 12.1724C4.37197 12.2577 4.48482 12.4011 4.53322 12.571C4.58163 12.7408 4.56163 12.9233 4.47762 13.0781C4.39362 13.233 4.25248 13.3477 4.08527 13.3968C3.91806 13.446 3.73847 13.4257 3.586 13.3404L1.8395 12.3617C1.73665 12.3041 1.6509 12.2196 1.59118 12.1168C1.53147 12.0141 1.49998 11.897 1.5 11.7777V9.99997C1.5 9.82316 1.56914 9.65359 1.69221 9.52857C1.81528 9.40355 1.9822 9.33331 2.15625 9.33331ZM14.8438 9.33331C15.0178 9.33331 15.1847 9.40355 15.3078 9.52857C15.4309 9.65359 15.5 9.82316 15.5 9.99997V11.7777C15.5 11.897 15.4685 12.0141 15.4088 12.1168C15.3491 12.2196 15.2633 12.3041 15.1605 12.3617L13.414 13.3395C13.3384 13.3847 13.2546 13.4142 13.1676 13.426C13.0806 13.4378 12.9922 13.4317 12.9075 13.4082C12.8229 13.3846 12.7437 13.3441 12.6748 13.2889C12.6058 13.2338 12.5485 13.1651 12.5061 13.0871C12.4637 13.009 12.4372 12.9231 12.428 12.8344C12.4189 12.7457 12.4274 12.6561 12.453 12.5708C12.4786 12.4855 12.5208 12.4063 12.577 12.3379C12.6333 12.2694 12.7025 12.2132 12.7805 12.1724L14.1875 11.3839V9.99997C14.1875 9.82316 14.2566 9.65359 14.3797 9.52857C14.5028 9.40355 14.6697 9.33331 14.8438 9.33331ZM8.5 12.8888C8.67405 12.8888 8.84097 12.959 8.96404 13.0841C9.08711 13.2091 9.15625 13.3787 9.15625 13.5555V14.2043L9.93325 13.7688C10.0851 13.6894 10.2615 13.6733 10.4248 13.7239C10.5882 13.7745 10.7257 13.8878 10.8082 14.0397C10.8906 14.1916 10.9116 14.3702 10.8665 14.5375C10.8214 14.7049 10.7139 14.8478 10.5668 14.9359L8.81675 15.9172C8.71974 15.9715 8.61077 16 8.5 16C8.38923 16 8.28026 15.9715 8.18325 15.9172L6.43325 14.9359C6.35521 14.8951 6.28601 14.8388 6.22976 14.7704C6.17351 14.7019 6.13134 14.6227 6.10576 14.5375C6.08017 14.4522 6.07168 14.3625 6.0808 14.2739C6.08991 14.1852 6.11645 14.0993 6.15882 14.0212C6.2012 13.9431 6.25857 13.8745 6.32753 13.8193C6.39648 13.7642 6.47563 13.7236 6.56028 13.7001C6.64494 13.6766 6.73338 13.6705 6.82037 13.6823C6.90736 13.6941 6.99114 13.7235 7.06675 13.7688L7.84375 14.2043V13.5555C7.84375 13.3787 7.91289 13.2091 8.03596 13.0841C8.15903 12.959 8.32595 12.8888 8.5 12.8888Z" fill="white"/>
</svg>
