<svg width="20" height="20" viewBox="0 0 20 20" xmlns="http://www.w3.org/2000/svg">
<path fill-rule="evenodd" clip-rule="evenodd" d="M9.68325 2.0828C9.78026 2.02848 9.88923 2 10 2C10.1108 2 10.2197 2.02848 10.3168 2.0828L12.0668 3.06411C12.1448 3.1049 12.214 3.16118 12.2702 3.22962C12.3265 3.29806 12.3687 3.37726 12.3942 3.46255C12.4198 3.54783 12.4283 3.63746 12.4192 3.72614C12.4101 3.81482 12.3836 3.90073 12.3412 3.97881C12.2988 4.05688 12.2414 4.12553 12.1725 4.18068C12.1035 4.23584 12.0244 4.27638 11.9397 4.29992C11.8551 4.32345 11.7666 4.32949 11.6796 4.31769C11.5926 4.30589 11.5089 4.27648 11.4332 4.23121L10 3.42855L8.56675 4.23121C8.49114 4.27648 8.40736 4.30589 8.32037 4.31769C8.23338 4.32949 8.14494 4.32345 8.06028 4.29992C7.97563 4.27638 7.89648 4.23584 7.82753 4.18068C7.75857 4.12553 7.7012 4.05688 7.65882 3.97881C7.61645 3.90073 7.58991 3.81482 7.5808 3.72614C7.57168 3.63746 7.58017 3.54783 7.60576 3.46255C7.63134 3.37726 7.67351 3.29806 7.72976 3.22962C7.78601 3.16118 7.85521 3.1049 7.93325 3.06411L9.68325 2.0828ZM5.97762 4.92186C6.01924 4.99855 6.04557 5.08281 6.05511 5.16984C6.06466 5.25687 6.05724 5.34495 6.03327 5.42906C6.0093 5.51317 5.96925 5.59167 5.91541 5.66005C5.86158 5.72844 5.795 5.78538 5.7195 5.82762L5.01513 6.22228L5.7195 6.61694C5.87197 6.70228 5.98482 6.84566 6.03322 7.01552C6.08163 7.18538 6.06163 7.36782 5.97762 7.52271C5.89362 7.67759 5.75248 7.79223 5.58527 7.84141C5.41806 7.89058 5.23847 7.87026 5.086 7.78492L4.3125 7.35115V8.00003C4.3125 8.17684 4.24336 8.34641 4.12029 8.47143C3.99722 8.59645 3.8303 8.66669 3.65625 8.66669C3.4822 8.66669 3.31528 8.59645 3.19221 8.47143C3.06914 8.34641 3 8.17684 3 8.00003V6.22228C2.99998 6.10299 3.03147 5.98587 3.09118 5.88315C3.1509 5.78043 3.23665 5.69587 3.3395 5.63829L5.086 4.66053C5.23835 4.57509 5.41788 4.55462 5.58508 4.60363C5.75229 4.65264 5.89349 4.76711 5.97762 4.92186ZM14.0224 4.92186C14.064 4.84504 14.1201 4.77731 14.1874 4.72254C14.2548 4.66778 14.3322 4.62705 14.4151 4.60269C14.498 4.57834 14.5848 4.57083 14.6706 4.5806C14.7563 4.59037 14.8393 4.61723 14.9149 4.65964L16.6605 5.63829C16.7633 5.69587 16.8491 5.78043 16.9088 5.88315C16.9685 5.98587 17 6.10299 17 6.22228V8.00003C17 8.17684 16.9309 8.34641 16.8078 8.47143C16.6847 8.59645 16.5178 8.66669 16.3438 8.66669C16.1697 8.66669 16.0028 8.59645 15.8797 8.47143C15.7566 8.34641 15.6875 8.17684 15.6875 8.00003V7.35115L14.914 7.78492C14.8385 7.82718 14.7556 7.85392 14.6699 7.86361C14.5842 7.8733 14.4975 7.86576 14.4147 7.84141C14.2475 7.79223 14.1064 7.67759 14.0224 7.52271C13.9808 7.44602 13.9545 7.36175 13.9449 7.27473C13.9354 7.18771 13.9428 7.09963 13.9668 7.01552C14.0152 6.84566 14.128 6.70228 14.2805 6.61694L14.9858 6.22228L14.2805 5.82762C14.2049 5.78538 14.1382 5.7284 14.0843 5.65994C14.0304 5.59149 13.9903 5.5129 13.9663 5.42869C13.9423 5.34447 13.9349 5.25628 13.9446 5.16916C13.9542 5.08204 13.9806 4.9977 14.0224 4.92097V4.92186ZM7.67513 8.47469C7.71678 8.39795 7.77293 8.3303 7.84035 8.27562C7.90777 8.22095 7.98514 8.18031 8.06804 8.15604C8.15093 8.13176 8.23772 8.12433 8.32345 8.13417C8.40917 8.14401 8.49215 8.17092 8.56763 8.21336L10 9.01602L11.4332 8.21336C11.5089 8.16809 11.5926 8.13868 11.6796 8.12688C11.7666 8.11507 11.8551 8.12112 11.9397 8.14465C12.0244 8.16819 12.1035 8.20873 12.1725 8.26388C12.2414 8.31904 12.2988 8.38769 12.3412 8.46576C12.3836 8.54384 12.4101 8.62975 12.4192 8.71843C12.4283 8.8071 12.4198 8.89674 12.3942 8.98202C12.3687 9.0673 12.3265 9.14651 12.2702 9.21495C12.214 9.28338 12.1448 9.33966 12.0668 9.38046L10.6562 10.1716V11.5555C10.6562 11.7323 10.5871 11.9019 10.464 12.0269C10.341 12.1519 10.174 12.2222 10 12.2222C9.82595 12.2222 9.65903 12.1519 9.53596 12.0269C9.41289 11.9019 9.34375 11.7323 9.34375 11.5555V10.1716L7.93325 9.38046C7.85775 9.33821 7.79117 9.28127 7.73734 9.21288C7.6835 9.1445 7.64345 9.06601 7.61948 8.98189C7.59551 8.89778 7.58809 8.8097 7.59763 8.72267C7.60718 8.63564 7.63351 8.55138 7.67513 8.47469ZM3.65625 11.3333C3.8303 11.3333 3.99722 11.4035 4.12029 11.5286C4.24336 11.6536 4.3125 11.8232 4.3125 12V13.3839L5.7195 14.1724C5.87197 14.2577 5.98482 14.4011 6.03322 14.571C6.08163 14.7408 6.06163 14.9233 5.97762 15.0781C5.89362 15.233 5.75248 15.3477 5.58527 15.3968C5.41806 15.446 5.23847 15.4257 5.086 15.3404L3.3395 14.3617C3.23665 14.3041 3.1509 14.2196 3.09118 14.1168C3.03147 14.0141 2.99998 13.897 3 13.7777V12C3 11.8232 3.06914 11.6536 3.19221 11.5286C3.31528 11.4035 3.4822 11.3333 3.65625 11.3333ZM16.3438 11.3333C16.5178 11.3333 16.6847 11.4035 16.8078 11.5286C16.9309 11.6536 17 11.8232 17 12V13.7777C17 13.897 16.9685 14.0141 16.9088 14.1168C16.8491 14.2196 16.7633 14.3041 16.6605 14.3617L14.914 15.3395C14.8384 15.3847 14.7546 15.4142 14.6676 15.426C14.5806 15.4378 14.4922 15.4317 14.4075 15.4082C14.3229 15.3846 14.2437 15.3441 14.1748 15.2889C14.1058 15.2338 14.0485 15.1651 14.0061 15.0871C13.9637 15.009 13.9372 14.9231 13.928 14.8344C13.9189 14.7457 13.9274 14.6561 13.953 14.5708C13.9786 14.4855 14.0208 14.4063 14.077 14.3379C14.1333 14.2694 14.2025 14.2132 14.2805 14.1724L15.6875 13.3839V12C15.6875 11.8232 15.7566 11.6536 15.8797 11.5286C16.0028 11.4035 16.1697 11.3333 16.3438 11.3333ZM10 14.8888C10.174 14.8888 10.341 14.959 10.464 15.0841C10.5871 15.2091 10.6562 15.3787 10.6562 15.5555V16.2043L11.4332 15.7688C11.5851 15.6894 11.7615 15.6733 11.9248 15.7239C12.0882 15.7745 12.2257 15.8878 12.3082 16.0397C12.3906 16.1916 12.4116 16.3702 12.3665 16.5375C12.3214 16.7049 12.2139 16.8478 12.0668 16.9359L10.3168 17.9172C10.2197 17.9715 10.1108 18 10 18C9.88923 18 9.78026 17.9715 9.68325 17.9172L7.93325 16.9359C7.85521 16.8951 7.78601 16.8388 7.72976 16.7704C7.67351 16.7019 7.63134 16.6227 7.60576 16.5375C7.58017 16.4522 7.57168 16.3625 7.5808 16.2739C7.58991 16.1852 7.61645 16.0993 7.65882 16.0212C7.7012 15.9431 7.75857 15.8745 7.82753 15.8193C7.89648 15.7642 7.97563 15.7236 8.06028 15.7001C8.14494 15.6766 8.23338 15.6705 8.32037 15.6823C8.40736 15.6941 8.49114 15.7235 8.56675 15.7688L9.34375 16.2043V15.5555C9.34375 15.3787 9.41289 15.2091 9.53596 15.0841C9.65903 14.959 9.82595 14.8888 10 14.8888Z" />
</svg>
