<svg width="24" height="24" viewBox="0 0 24 24" xmlns="http://www.w3.org/2000/svg">
<path fill-rule="evenodd" clip-rule="evenodd" d="M4 3.25C4.41421 3.25 4.75 3.58579 4.75 4V7.09975C6.32267 4.77742 8.98235 3.25 12 3.25C16.4626 3.25 20.144 6.59015 20.6823 10.9072C20.7336 11.3182 20.4419 11.693 20.0309 11.7442C19.6199 11.7955 19.2451 11.5038 19.1939 11.0928C18.748 7.51723 15.6966 4.75 12 4.75C9.36932 4.75 7.06458 6.1513 5.79371 8.25H9C9.41421 8.25 9.75 8.58579 9.75 9C9.75 9.41421 9.41421 9.75 9 9.75H4C3.58579 9.75 3.25 9.41421 3.25 9V4C3.25 3.58579 3.58579 3.25 4 3.25ZM3.96909 12.2558C4.38012 12.2045 4.75488 12.4962 4.80613 12.9072C5.252 16.4828 8.30341 19.25 12 19.25C14.6307 19.25 16.9354 17.8487 18.2063 15.75H15C14.5858 15.75 14.25 15.4142 14.25 15C14.25 14.5858 14.5858 14.25 15 14.25H20C20.4142 14.25 20.75 14.5858 20.75 15V20C20.75 20.4142 20.4142 20.75 20 20.75C19.5858 20.75 19.25 20.4142 19.25 20V16.9002C17.6773 19.2226 15.0176 20.75 12 20.75C7.53735 20.75 3.85599 17.4099 3.31766 13.0928C3.2664 12.6818 3.55806 12.307 3.96909 12.2558Z" />
</svg>
