<svg width="22" height="22" viewBox="0 0 22 22" xmlns="http://www.w3.org/2000/svg">
<path fill-rule="evenodd" clip-rule="evenodd" d="M7.25195 4.875H14.38C15.2742 4.87632 16.1314 5.23249 16.7632 5.86528C17.3951 6.49807 17.75 7.35576 17.75 8.25V17.625C18.5456 17.625 19.3087 17.3089 19.8713 16.7463C20.4339 16.1837 20.75 15.4206 20.75 14.625V4.983C20.75 3.478 19.625 2.172 18.086 2.043C17.8617 2.02479 17.6374 2.00812 17.413 1.993C17.1598 1.50529 16.7776 1.09647 16.308 0.811141C15.8384 0.525816 15.2994 0.374949 14.75 0.375H13.25C12.7005 0.374949 12.1615 0.525816 11.6919 0.811141C11.2223 1.09647 10.8401 1.50529 10.587 1.993C10.362 2.008 10.137 2.025 9.91395 2.043C8.41195 2.17 7.30395 3.417 7.25195 4.875ZM13.25 1.875C12.8521 1.875 12.4706 2.03304 12.1893 2.31434C11.908 2.59564 11.75 2.97718 11.75 3.375H16.25C16.25 2.97718 16.0919 2.59564 15.8106 2.31434C15.5293 2.03304 15.1478 1.875 14.75 1.875H13.25Z" />
<path fill-rule="evenodd" clip-rule="evenodd" d="M2.75 8.24902C2.75 7.21302 3.59 6.37402 4.625 6.37402H14.375C15.411 6.37402 16.25 7.21402 16.25 8.24902V19.499C16.25 20.534 15.41 21.374 14.375 21.374H4.625C4.12772 21.374 3.65081 21.1765 3.29917 20.8248C2.94754 20.4732 2.75 19.9963 2.75 19.499V8.24902ZM5.75 10.874C5.75 10.6751 5.82902 10.4843 5.96967 10.3437C6.11032 10.203 6.30109 10.124 6.5 10.124H6.508C6.70691 10.124 6.89768 10.203 7.03833 10.3437C7.17898 10.4843 7.258 10.6751 7.258 10.874V10.882C7.258 11.0809 7.17898 11.2717 7.03833 11.4124C6.89768 11.553 6.70691 11.632 6.508 11.632H6.5C6.30109 11.632 6.11032 11.553 5.96967 11.4124C5.82902 11.2717 5.75 11.0809 5.75 10.882V10.874ZM8 10.874C8 10.6751 8.07902 10.4843 8.21967 10.3437C8.36032 10.203 8.55109 10.124 8.75 10.124H12.5C12.6989 10.124 12.8897 10.203 13.0303 10.3437C13.171 10.4843 13.25 10.6751 13.25 10.874C13.25 11.0729 13.171 11.2637 13.0303 11.4044C12.8897 11.545 12.6989 11.624 12.5 11.624H8.75C8.55109 11.624 8.36032 11.545 8.21967 11.4044C8.07902 11.2637 8 11.0729 8 10.874ZM5.75 13.874C5.75 13.6751 5.82902 13.4843 5.96967 13.3437C6.11032 13.203 6.30109 13.124 6.5 13.124H6.508C6.70691 13.124 6.89768 13.203 7.03833 13.3437C7.17898 13.4843 7.258 13.6751 7.258 13.874V13.882C7.258 14.0809 7.17898 14.2717 7.03833 14.4124C6.89768 14.553 6.70691 14.632 6.508 14.632H6.5C6.30109 14.632 6.11032 14.553 5.96967 14.4124C5.82902 14.2717 5.75 14.0809 5.75 13.882V13.874ZM8 13.874C8 13.6751 8.07902 13.4843 8.21967 13.3437C8.36032 13.203 8.55109 13.124 8.75 13.124H12.5C12.6989 13.124 12.8897 13.203 13.0303 13.3437C13.171 13.4843 13.25 13.6751 13.25 13.874C13.25 14.0729 13.171 14.2637 13.0303 14.4044C12.8897 14.545 12.6989 14.624 12.5 14.624H8.75C8.55109 14.624 8.36032 14.545 8.21967 14.4044C8.07902 14.2637 8 14.0729 8 13.874ZM5.75 16.874C5.75 16.6751 5.82902 16.4843 5.96967 16.3437C6.11032 16.203 6.30109 16.124 6.5 16.124H6.508C6.70691 16.124 6.89768 16.203 7.03833 16.3437C7.17898 16.4843 7.258 16.6751 7.258 16.874V16.882C7.258 17.0809 7.17898 17.2717 7.03833 17.4124C6.89768 17.553 6.70691 17.632 6.508 17.632H6.5C6.30109 17.632 6.11032 17.553 5.96967 17.4124C5.82902 17.2717 5.75 17.0809 5.75 16.882V16.874ZM8 16.874C8 16.6751 8.07902 16.4843 8.21967 16.3437C8.36032 16.203 8.55109 16.124 8.75 16.124H12.5C12.6989 16.124 12.8897 16.203 13.0303 16.3437C13.171 16.4843 13.25 16.6751 13.25 16.874C13.25 17.0729 13.171 17.2637 13.0303 17.4044C12.8897 17.545 12.6989 17.624 12.5 17.624H8.75C8.55109 17.624 8.36032 17.545 8.21967 17.4044C8.07902 17.2637 8 17.0729 8 16.874Z" />
</svg>
