<svg width="16" height="16" viewBox="0 0 16 16" xmlns="http://www.w3.org/2000/svg">
<path fill-rule="evenodd" clip-rule="evenodd" d="M8 1.82353C4.58883 1.82353 1.82353 4.58883 1.82353 8C1.82353 11.4112 4.58883 14.1765 8 14.1765C11.4112 14.1765 14.1765 11.4112 14.1765 8C14.1765 4.58883 11.4112 1.82353 8 1.82353ZM1 8C1 4.13401 4.13401 1 8 1C11.866 1 15 4.13401 15 8C15 11.866 11.866 15 8 15C4.13401 15 1 11.866 1 8Z" />
<path fill-rule="evenodd" clip-rule="evenodd" d="M8 4.29412C5.9533 4.29412 4.29412 5.9533 4.29412 8C4.29412 10.0467 5.9533 11.7059 8 11.7059C10.0467 11.7059 11.7059 10.0467 11.7059 8C11.7059 5.9533 10.0467 4.29412 8 4.29412ZM3.47059 8C3.47059 5.49847 5.49847 3.47059 8 3.47059C10.5015 3.47059 12.5294 5.49847 12.5294 8C12.5294 10.5015 10.5015 12.5294 8 12.5294C5.49847 12.5294 3.47059 10.5015 3.47059 8Z" />
<path fill-rule="evenodd" clip-rule="evenodd" d="M8 6.76471C7.31777 6.76471 6.76471 7.31777 6.76471 8C6.76471 8.68223 7.31777 9.23529 8 9.23529C8.68223 9.23529 9.23529 8.68223 9.23529 8C9.23529 7.31777 8.68223 6.76471 8 6.76471ZM5.94118 8C5.94118 6.86294 6.86294 5.94118 8 5.94118C9.13706 5.94118 10.0588 6.86294 10.0588 8C10.0588 9.13706 9.13706 10.0588 8 10.0588C6.86294 10.0588 5.94118 9.13706 5.94118 8Z" />
</svg>
