<svg width="20" height="19" viewBox="0 0 20 19" xmlns="http://www.w3.org/2000/svg">
  <path d="M14.2041 4.77621C13.4271 1.81551 10.7282 -0.375 7.52734 -0.375C3.72133 -0.375 0.625 2.72133 0.625 6.52734C0.625 9.75457 2.85156 12.4712 5.84902 13.2227C6.23638 14.6987 7.10179 16.0049 8.31004 16.9371C9.51829 17.8692 11.0013 18.3749 12.5273 18.375C16.3332 18.375 19.4297 15.2787 19.4297 11.4729C19.4294 8.29965 17.2516 5.53656 14.2041 4.77621ZM1.875 6.52734C1.875 3.41055 4.41055 0.875 7.52734 0.875C10.6441 0.875 13.1797 3.41055 13.1797 6.52734C13.1797 9.64414 10.6441 12.1797 7.52734 12.1797C4.41059 12.1797 1.875 9.64379 1.875 6.52734ZM12.5273 17.125C10.1472 17.125 8.02695 15.6073 7.22098 13.4222C7.32254 13.4267 7.42465 13.4294 7.52734 13.4294C7.95589 13.4294 8.38352 13.3896 8.80469 13.3104L12.6182 17.1238C12.5878 17.1243 12.5575 17.125 12.5273 17.125ZM14.1495 16.8874L10.1664 12.9045C10.781 12.6489 11.3555 12.3059 11.872 11.886L15.952 15.966C15.4116 16.3793 14.8009 16.6915 14.1493 16.8874H14.1495ZM16.8566 15.1025L12.7676 11.0139C13.2154 10.4919 13.5829 9.90607 13.8579 9.27566L17.8777 13.2955C17.6517 13.9557 17.3054 14.5684 16.8562 15.1025H16.8566ZM18.1688 11.8184L14.2852 7.93484C14.3815 7.47181 14.4299 7.00012 14.4298 6.52719C14.4298 6.39887 14.4259 6.27145 14.419 6.14488C15.5183 6.53743 16.4696 7.25994 17.1428 8.21364C17.8159 9.16734 18.1781 10.3057 18.1798 11.473C18.1794 11.5889 18.1754 11.7041 18.1685 11.8184H18.1688Z" />
</svg>
