<svg width="46" height="50" viewBox="0 0 46 50" fill="none" xmlns="http://www.w3.org/2000/svg">
<path fill-rule="evenodd" clip-rule="evenodd" d="M22.7335 0.200195C13.2227 0.200195 3.3302 2.34355 3.3302 2.34355L3.32213 2.35163C2.38605 2.53902 1.54369 3.04465 0.938124 3.78266C0.33256 4.52067 0.00112826 5.44554 0.00012207 6.4002V18.8002C0.00012207 40.2894 20.7112 49.2714 20.7112 49.2714C21.3288 49.618 22.0252 49.8001 22.7335 49.8002C23.439 49.7987 24.1324 49.6167 24.7476 49.2714H24.7557C24.7578 49.2714 45.4668 40.2894 45.4668 18.8002V6.4002C45.4673 5.44302 45.1355 4.51534 44.5282 3.77551C43.9209 3.03569 43.0756 2.52957 42.1367 2.34355C42.1367 2.34355 32.2443 0.200195 22.7335 0.200195ZM27.4157 22.604C26.2153 23.6998 24.6245 24.3748 22.8751 24.3748C21.1257 24.3748 19.5349 23.6998 18.3345 22.604C16.3534 23.2498 15 24.7247 15 26.6248V29.9999H30.7502V26.6248C30.7502 24.7247 29.3968 23.2498 27.4157 22.604ZM18.375 16.5001C18.375 14.0183 20.3933 12 22.8751 12C25.3568 12 27.3751 14.0183 27.3751 16.5001V17.6251C27.3751 20.1069 25.3568 22.1251 22.8751 22.1251C20.3933 22.1251 18.375 20.1069 18.375 17.6251V16.5001Z" fill="url(#paint0_linear_8502_11889)"/>
<defs>
<linearGradient id="paint0_linear_8502_11889" x1="-0.266601" y1="-2.61641e-07" x2="22.7335" y2="49.8002" gradientUnits="userSpaceOnUse">
<stop stop-color="#00BFFF"/>
<stop offset="1" stop-color="#717FFF"/>
</linearGradient>
</defs>
</svg>
