<svg width="50" height="50" viewBox="0 0 50 50" fill="none" xmlns="http://www.w3.org/2000/svg">
<path d="M25 0C20.0555 0 15.222 1.46622 11.1108 4.21326C6.99953 6.96029 3.79521 10.8648 1.90302 15.4329C0.0108322 20.0011 -0.484251 25.0277 0.480379 29.8773C1.44501 34.7268 3.82603 39.1814 7.32234 42.6777C10.8187 46.174 15.2732 48.555 20.1227 49.5196C24.9723 50.4843 29.9989 49.9892 34.5671 48.097C39.1352 46.2048 43.0397 43.0005 45.7867 38.8892C48.5338 34.778 50 29.9445 50 25C49.9928 18.3718 47.3566 12.0171 42.6697 7.33027C37.9829 2.64342 31.6282 0.00719285 25 0ZM6.52175 25C6.51753 21.6238 7.43953 18.3111 9.18739 15.4226C10.9352 12.534 13.442 10.1803 16.4347 8.61754C19.4275 7.05481 22.7916 6.34297 26.1608 6.55951C29.5301 6.77605 32.7754 7.91267 35.5435 9.84565L9.84566 35.5435C7.68091 32.4539 6.52032 28.7725 6.52175 25ZM25 43.4783C21.2275 43.4797 17.5461 42.3191 14.4565 40.1543L40.1544 14.4565C42.0873 17.2246 43.224 20.4699 43.4405 23.8392C43.657 27.2084 42.9452 30.5725 41.3825 33.5653C39.8197 36.558 37.466 39.0648 34.5774 40.8126C31.6889 42.5605 28.3762 43.4825 25 43.4783Z" fill="url(#paint0_linear_8502_11766)"/>
<defs>
<linearGradient id="paint0_linear_8502_11766" x1="-0.293317" y1="-0.20181" x2="21.5741" y2="51.4504" gradientUnits="userSpaceOnUse">
<stop stop-color="#00BFFF"/>
<stop offset="1" stop-color="#717FFF"/>
</linearGradient>
</defs>
</svg>
