<svg width="144" height="144" viewBox="0 0 144 144" fill="none" xmlns="http://www.w3.org/2000/svg">
<circle opacity="0.1" cx="72" cy="72" r="72" fill="#00BFFF"/>
<circle opacity="0.2" cx="71.9988" cy="71.9998" r="56.4324" fill="#00BFFF"/>
<circle cx="71.9981" cy="72.0001" r="42.1622" fill="url(#paint0_linear)"/>
<mask id="mask0" mask-type="alpha" maskUnits="userSpaceOnUse" x="29" y="29" width="86" height="86">
<circle cx="72.002" cy="72.0001" r="42.1622" fill="url(#paint1_linear)"/>
</mask>
<g mask="url(#mask0)">
<circle cx="70.706" cy="66.4926" r="13.9521" fill="white"/>
<path d="M47.4531 108.349C47.4531 95.5061 57.864 85.0952 70.7066 85.0952C83.5491 85.0952 93.96 95.5061 93.96 108.349C93.96 111.559 91.3573 114.162 88.1467 114.162H53.2665C50.0559 114.162 47.4531 111.559 47.4531 108.349Z" fill="white"/>
</g>
<g filter="url(#filter0_d)">
<path d="M117.581 26.0048L117.575 25.9936L117.567 25.9826C116.857 24.8718 115.879 23.9577 114.723 23.3245C113.567 22.6913 112.269 22.3594 110.951 22.3594C109.633 22.3594 108.336 22.6913 107.179 23.3245C106.023 23.9577 105.045 24.8718 104.335 25.9826L104.328 25.9936L104.321 26.0048L88.9975 51.4174H88.9975L88.9964 51.4194C88.3647 52.4723 88.0214 53.6729 88.001 54.9005C87.9805 56.1282 88.2836 57.3396 88.8798 58.4129L88.8797 58.4129L88.8854 58.4229C89.5639 59.6121 90.5459 60.5998 91.7312 61.2852C92.9158 61.9702 94.261 62.3285 95.6294 62.3237H126.269C127.628 62.3372 128.966 61.9927 130.148 61.3249C131.333 60.6561 132.32 59.6867 133.01 58.5146L133.014 58.5072L133.019 58.4997C133.632 57.4152 133.945 56.1864 133.925 54.9405C133.904 53.6954 133.552 52.4783 132.903 51.4151C132.903 51.4144 132.902 51.4137 132.902 51.413L117.581 26.0048Z" fill="white" stroke="white" stroke-width="2"/>
<path d="M132.048 51.9338L116.725 26.5212C116.105 25.5519 115.252 24.7542 114.243 24.2016C113.233 23.649 112.102 23.3594 110.951 23.3594C109.801 23.3594 108.669 23.649 107.66 24.2016C106.651 24.7542 105.797 25.5519 105.177 26.5212L89.8539 51.9338C89.3126 52.8361 89.0184 53.8651 89.0008 54.9172C88.9833 55.9693 89.2431 57.0075 89.754 57.9273C90.3447 58.9627 91.1998 59.8228 92.2317 60.4195C93.2637 61.0162 94.4356 61.3282 95.6277 61.3237H126.275C127.459 61.3363 128.625 61.0364 129.657 60.4541C130.688 59.8718 131.547 59.0278 132.148 58.0072C132.674 57.0778 132.942 56.0247 132.925 54.9569C132.907 53.8891 132.605 52.8454 132.048 51.9338ZM110.951 53.3323C110.556 53.3323 110.17 53.2151 109.841 52.9956C109.513 52.7761 109.257 52.464 109.105 52.099C108.954 51.7339 108.915 51.3322 108.992 50.9447C109.069 50.5571 109.259 50.2012 109.538 49.9218C109.818 49.6424 110.174 49.4521 110.561 49.375C110.949 49.2979 111.351 49.3375 111.716 49.4887C112.081 49.6399 112.393 49.896 112.612 50.2245C112.832 50.553 112.949 50.9393 112.949 51.3344C112.949 51.8643 112.738 52.3725 112.364 52.7471C111.989 53.1218 111.481 53.3323 110.951 53.3323ZM112.949 45.3409C112.949 45.8708 112.738 46.3789 112.364 46.7536C111.989 47.1283 111.481 47.3388 110.951 47.3388C110.421 47.3388 109.913 47.1283 109.538 46.7536C109.164 46.3789 108.953 45.8708 108.953 45.3409V37.3495C108.953 36.8197 109.164 36.3115 109.538 35.9368C109.913 35.5622 110.421 35.3517 110.951 35.3517C111.481 35.3517 111.989 35.5622 112.364 35.9368C112.738 36.3115 112.949 36.8197 112.949 37.3495V45.3409Z" fill="#FF472E"/>
</g>
<defs>
<filter id="filter0_d" x="83" y="21.3594" width="55.9255" height="49.9647" filterUnits="userSpaceOnUse" color-interpolation-filters="sRGB">
<feFlood flood-opacity="0" result="BackgroundImageFix"/>
<feColorMatrix in="SourceAlpha" type="matrix" values="0 0 0 0 0 0 0 0 0 0 0 0 0 0 0 0 0 0 127 0"/>
<feOffset dy="4"/>
<feGaussianBlur stdDeviation="2"/>
<feColorMatrix type="matrix" values="0 0 0 0 0 0 0 0 0 0 0 0 0 0 0 0 0 0 0.1 0"/>
<feBlend mode="multiply" in2="BackgroundImageFix" result="effect1_dropShadow"/>
<feBlend mode="normal" in="SourceGraphic" in2="effect1_dropShadow" result="shape"/>
</filter>
<linearGradient id="paint0_linear" x1="71.9981" y1="29.8379" x2="71.9981" y2="114.162" gradientUnits="userSpaceOnUse">
<stop stop-color="#3079F9"/>
<stop offset="0.489583" stop-color="#306DE9"/>
<stop offset="0.822917" stop-color="#2B61D4"/>
<stop offset="1" stop-color="#2149AC"/>
</linearGradient>
<linearGradient id="paint1_linear" x1="72.002" y1="29.8379" x2="72.002" y2="114.162" gradientUnits="userSpaceOnUse">
<stop stop-color="#3079F9"/>
<stop offset="0.489583" stop-color="#306DE9"/>
<stop offset="0.822917" stop-color="#2B61D4"/>
<stop offset="1" stop-color="#2149AC"/>
</linearGradient>
</defs>
</svg>
