<svg width="38" height="38" viewBox="0 0 38 38" xmlns="http://www.w3.org/2000/svg">
<path id="Vector" d="M28.5431 21.9873L21.6036 10.4788C21.323 10.0398 20.9364 9.67853 20.4794 9.42829C20.0225 9.17804 19.5098 9.04688 18.9888 9.04688C18.4678 9.04688 17.9552 9.17804 17.4983 9.42829C17.0413 9.67853 16.6547 10.0398 16.3741 10.4788L9.43455 21.9873C9.18941 22.396 9.05617 22.862 9.04823 23.3384C9.04029 23.8149 9.15792 24.285 9.38931 24.7016C9.65683 25.1705 10.0441 25.56 10.5114 25.8302C10.9787 26.1005 11.5095 26.2418 12.0493 26.2397H25.9284C26.4647 26.2454 26.993 26.1096 27.46 25.8459C27.927 25.5822 28.3162 25.2 28.5884 24.7378C28.8265 24.3169 28.9479 23.84 28.94 23.3564C28.932 22.8729 28.795 22.4002 28.5431 21.9873ZM18.9888 22.6207C18.8099 22.6207 18.635 22.5676 18.4862 22.4682C18.3374 22.3688 18.2214 22.2275 18.1529 22.0622C18.0845 21.8968 18.0666 21.7149 18.1015 21.5394C18.1364 21.3639 18.2225 21.2027 18.3491 21.0762C18.4756 20.9496 18.6368 20.8634 18.8123 20.8285C18.9878 20.7936 19.1698 20.8115 19.3351 20.88C19.5004 20.9485 19.6417 21.0645 19.7411 21.2133C19.8405 21.362 19.8936 21.537 19.8936 21.7159C19.8936 21.9559 19.7983 22.186 19.6286 22.3557C19.4589 22.5254 19.2288 22.6207 18.9888 22.6207ZM19.8936 19.0016C19.8936 19.2416 19.7983 19.4717 19.6286 19.6414C19.4589 19.8111 19.2288 19.9064 18.9888 19.9064C18.7489 19.9064 18.5188 19.8111 18.3491 19.6414C18.1794 19.4717 18.0841 19.2416 18.0841 19.0016V15.3826C18.0841 15.1426 18.1794 14.9125 18.3491 14.7428C18.5188 14.5731 18.7489 14.4778 18.9888 14.4778C19.2288 14.4778 19.4589 14.5731 19.6286 14.7428C19.7983 14.9125 19.8936 15.1426 19.8936 15.3826V19.0016Z" />
</svg>
