<svg width="17" height="16" viewBox="0 0 17 16" xmlns="http://www.w3.org/2000/svg">
<g id="user-group" clip-path="url(#clip0_1515_10389)">
<path id="Vector" fill-rule="evenodd" clip-rule="evenodd" d="M7.9821 3C7.15367 3 6.4821 3.67157 6.4821 4.5C6.4821 5.32843 7.15367 6 7.9821 6C8.81052 6 9.4821 5.32843 9.4821 4.5C9.4821 3.67157 8.81052 3 7.9821 3ZM5.4821 4.5C5.4821 3.11929 6.60138 2 7.9821 2C9.36281 2 10.4821 3.11929 10.4821 4.5C10.4821 5.88071 9.36281 7 7.9821 7C6.60138 7 5.4821 5.88071 5.4821 4.5ZM3.31543 5.66667C2.85519 5.66667 2.4821 6.03976 2.4821 6.5C2.4821 6.96024 2.85519 7.33333 3.31543 7.33333C3.77567 7.33333 4.14876 6.96024 4.14876 6.5C4.14876 6.03976 3.77567 5.66667 3.31543 5.66667ZM1.4821 6.5C1.4821 5.48748 2.30291 4.66667 3.31543 4.66667C4.32795 4.66667 5.14876 5.48748 5.14876 6.5C5.14876 7.51252 4.32795 8.33333 3.31543 8.33333C2.30291 8.33333 1.4821 7.51252 1.4821 6.5ZM12.6488 5.66667C12.1885 5.66667 11.8154 6.03976 11.8154 6.5C11.8154 6.96024 12.1885 7.33333 12.6488 7.33333C13.109 7.33333 13.4821 6.96024 13.4821 6.5C13.4821 6.03976 13.109 5.66667 12.6488 5.66667ZM10.8154 6.5C10.8154 5.48748 11.6362 4.66667 12.6488 4.66667C13.6613 4.66667 14.4821 5.48748 14.4821 6.5C14.4821 7.51252 13.6613 8.33333 12.6488 8.33333C11.6362 8.33333 10.8154 7.51252 10.8154 6.5ZM7.9821 9C6.78995 9 5.76859 9.73644 5.35045 10.7811C5.2205 11.1057 5.14876 11.4605 5.14876 11.8333V12.6667H10.8154V11.8333C10.8154 11.4605 10.7437 11.1057 10.6137 10.7811C10.1956 9.73644 9.17425 9 7.9821 9ZM11.8154 12.6667H14.1488V11.8333C14.1488 11.0049 13.4772 10.3333 12.6488 10.3333C12.2651 10.3333 11.9151 10.477 11.6495 10.7146C11.7575 11.069 11.8154 11.4447 11.8154 11.8333V12.6667ZM11.2204 9.78138C10.5409 8.71109 9.34495 8 7.9821 8C6.61924 8 5.42333 8.71109 4.74376 9.78138C4.33904 9.4992 3.84654 9.33333 3.31543 9.33333C1.93472 9.33333 0.81543 10.4526 0.81543 11.8333V13.1667C0.81543 13.4428 1.03929 13.6667 1.31543 13.6667H14.6488C14.9249 13.6667 15.1488 13.4428 15.1488 13.1667V11.8333C15.1488 10.4526 14.0295 9.33333 12.6488 9.33333C12.1177 9.33333 11.6252 9.4992 11.2204 9.78138ZM4.31472 10.7146C4.04908 10.477 3.69913 10.3333 3.31543 10.3333C2.487 10.3333 1.81543 11.0049 1.81543 11.8333V12.6667H4.14876V11.8333C4.14876 11.4448 4.20674 11.069 4.31472 10.7146Z" />
</g>
<defs>
<clipPath id="clip0_1515_10389">
<rect width="16" height="16" fill="white" transform="translate(0.148438)"/>
</clipPath>
</defs>
</svg>
