<svg width="20" height="20" viewBox="0 0 20 20" xmlns="http://www.w3.org/2000/svg">
<path id="Vector" fill-rule="evenodd" clip-rule="evenodd" d="M8.75009 1C8.02075 1 7.32127 1.28973 6.80555 1.80546C6.28982 2.32118 6.00009 3.02065 6.00009 3.75V4.193C5.20509 4.27 4.41609 4.369 3.63509 4.491C3.53634 4.50445 3.44126 4.53745 3.35541 4.58807C3.26956 4.63869 3.19465 4.70591 3.13508 4.78581C3.0755 4.86571 3.03245 4.95668 3.00843 5.0534C2.98441 5.15013 2.97992 5.25067 2.9952 5.34916C3.01048 5.44764 3.04524 5.54209 3.09745 5.62699C3.14965 5.71189 3.21825 5.78553 3.29924 5.84361C3.38023 5.90169 3.47199 5.94305 3.56914 5.96526C3.6663 5.98748 3.76691 5.99011 3.86509 5.973L4.01409 5.951L4.85509 16.469C4.91015 17.1582 5.22279 17.8014 5.73075 18.2704C6.23871 18.7394 6.9047 18.9999 7.59609 19H12.4031C13.0945 19.0002 13.7606 18.74 14.2687 18.2711C14.7769 17.8022 15.0898 17.1592 15.1451 16.47L15.9861 5.95L16.1351 5.973C16.3298 5.99952 16.5271 5.94858 16.6847 5.83111C16.8422 5.71365 16.9473 5.53906 16.9775 5.34488C17.0076 5.15071 16.9603 4.95246 16.8458 4.79278C16.7313 4.6331 16.5587 4.52474 16.3651 4.491C15.5798 4.36878 14.7911 4.26941 14.0001 4.193V3.75C14.0001 3.02065 13.7104 2.32118 13.1946 1.80546C12.6789 1.28973 11.9794 1 11.2501 1H8.75009ZM10.0001 4C10.8401 4 11.6731 4.025 12.5001 4.075V3.75C12.5001 3.06 11.9401 2.5 11.2501 2.5H8.75009C8.06009 2.5 7.50009 3.06 7.50009 3.75V4.075C8.32709 4.025 9.16009 4 10.0001 4ZM8.58009 7.72C8.57213 7.52109 8.48549 7.33348 8.33921 7.19846C8.19293 7.06343 7.999 6.99204 7.80009 7C7.60118 7.00796 7.41357 7.0946 7.27855 7.24088C7.14352 7.38716 7.07213 7.58109 7.08009 7.78L7.38009 15.28C7.38403 15.3785 7.40733 15.4752 7.44866 15.5647C7.48999 15.6542 7.54854 15.7347 7.62097 15.8015C7.6934 15.8684 7.77829 15.9203 7.8708 15.9544C7.9633 15.9884 8.0616 16.0039 8.16009 16C8.25858 15.9961 8.35533 15.9728 8.44482 15.9314C8.53431 15.8901 8.61478 15.8315 8.68163 15.7591C8.74849 15.6867 8.80043 15.6018 8.83448 15.5093C8.86853 15.4168 8.88403 15.3185 8.88009 15.22L8.58009 7.72ZM12.9201 7.78C12.924 7.68151 12.9085 7.58321 12.8745 7.4907C12.8404 7.3982 12.7885 7.31331 12.7216 7.24088C12.6548 7.16845 12.5743 7.1099 12.4848 7.06857C12.3953 7.02724 12.2986 7.00394 12.2001 7C12.0012 6.99204 11.8073 7.06343 11.661 7.19846C11.5147 7.33348 11.428 7.52109 11.4201 7.72L11.1201 15.22C11.1162 15.3185 11.1317 15.4168 11.1657 15.5093C11.1998 15.6018 11.2517 15.6867 11.3185 15.7591C11.3854 15.8315 11.4659 15.8901 11.5554 15.9314C11.6448 15.9728 11.7416 15.9961 11.8401 16C11.9386 16.0039 12.0369 15.9884 12.1294 15.9544C12.2219 15.9203 12.3068 15.8684 12.3792 15.8015C12.4516 15.7347 12.5102 15.6542 12.5515 15.5647C12.5929 15.4752 12.6162 15.3785 12.6201 15.28L12.9201 7.78Z" />
</svg>
