<svg width="20" height="20" viewBox="0 0 20 20"  xmlns="http://www.w3.org/2000/svg">

<path id="Vector" fill-rule="evenodd" clip-rule="evenodd" d="M0.98999 5.24002C0.991301 4.94455 1.0508 4.65222 1.16508 4.37974C1.27937 4.10726 1.4462 3.85996 1.65606 3.65195C1.86593 3.44395 2.1147 3.27932 2.38819 3.16746C2.66167 3.0556 2.95452 2.99871 3.24999 3.00002H16.75C17.0455 3.00002 17.338 3.05822 17.611 3.17129C17.884 3.28437 18.132 3.4501 18.341 3.65903C18.5499 3.86796 18.7156 4.116 18.8287 4.38898C18.9418 4.66197 19 4.95455 19 5.25002L19.01 14.75C19.01 15.0455 18.9518 15.3381 18.8387 15.6111C18.7256 15.884 18.5599 16.1321 18.351 16.341C18.142 16.5499 17.894 16.7157 17.621 16.8288C17.348 16.9418 17.0555 17 16.76 17H3.25999C2.66117 16.9982 2.0874 16.7595 1.66397 16.336C1.24054 15.9126 1.00184 15.3388 0.99999 14.74L0.98999 5.24002ZM9.24999 14.76V14.135C9.24999 13.9361 9.17097 13.7453 9.03032 13.6047C8.88967 13.464 8.6989 13.385 8.49999 13.385H3.24999C3.05108 13.385 2.86031 13.464 2.71966 13.6047C2.57901 13.7453 2.49999 13.9361 2.49999 14.135V14.75C2.49999 15.164 2.83599 15.5 3.24999 15.5H8.62299C8.7982 15.4709 8.95739 15.3805 9.07221 15.245C9.18703 15.1095 9.25003 14.9376 9.24999 14.76ZM10.75 14.76C10.75 14.9376 10.813 15.1095 10.9278 15.245C11.0426 15.3805 11.2018 15.4709 11.377 15.5H16.75C16.9489 15.5 17.1397 15.421 17.2803 15.2804C17.421 15.1397 17.5 14.9489 17.5 14.75V14.135C17.5 13.9361 17.421 13.7453 17.2803 13.6047C17.1397 13.464 16.9489 13.385 16.75 13.385H11.5C11.3011 13.385 11.1103 13.464 10.9697 13.6047C10.829 13.7453 10.75 13.9361 10.75 14.135V14.76ZM17.5 11.13V10.505C17.5 10.3061 17.421 10.1153 17.2803 9.97469C17.1397 9.83404 16.9489 9.75502 16.75 9.75502H11.5C11.3011 9.75502 11.1103 9.83404 10.9697 9.97469C10.829 10.1153 10.75 10.3061 10.75 10.505V11.13C10.75 11.544 11.086 11.88 11.5 11.88H16.75C16.9489 11.88 17.1397 11.801 17.2803 11.6604C17.421 11.5197 17.5 11.3289 17.5 11.13ZM9.24999 11.13V10.505C9.24999 10.3061 9.17097 10.1153 9.03032 9.97469C8.88967 9.83404 8.6989 9.75502 8.49999 9.75502H3.24999C3.05108 9.75502 2.86031 9.83404 2.71966 9.97469C2.57901 10.1153 2.49999 10.3061 2.49999 10.505V11.13C2.49999 11.544 2.83599 11.88 3.24999 11.88H8.49999C8.6989 11.88 8.88967 11.801 9.03032 11.6604C9.17097 11.5197 9.24999 11.3289 9.24999 11.13ZM17.5 7.50002V6.87502C17.5 6.67611 17.421 6.48534 17.2803 6.34469C17.1397 6.20404 16.9489 6.12502 16.75 6.12502H11.5C11.3011 6.12502 11.1103 6.20404 10.9697 6.34469C10.829 6.48534 10.75 6.67611 10.75 6.87502V7.50002C10.75 7.91402 11.086 8.25002 11.5 8.25002H16.75C16.9489 8.25002 17.1397 8.171 17.2803 8.03035C17.421 7.8897 17.5 7.69893 17.5 7.50002ZM9.24999 7.50002V6.87502C9.24999 6.67611 9.17097 6.48534 9.03032 6.34469C8.88967 6.20404 8.6989 6.12502 8.49999 6.12502H3.24999C3.05108 6.12502 2.86031 6.20404 2.71966 6.34469C2.57901 6.48534 2.49999 6.67611 2.49999 6.87502V7.50002C2.49999 7.91402 2.83599 8.25002 3.24999 8.25002H8.49999C8.6989 8.25002 8.88967 8.171 9.03032 8.03035C9.17097 7.8897 9.24999 7.69893 9.24999 7.50002Z" />

</svg>
