<svg width="138" height="40" viewBox="0 0 138 40" fill="none" xmlns="http://www.w3.org/2000/svg">
<g clip-path="url(#clip0)">
<path d="M134.357 11.8126C134.286 12.8736 133.964 13.6516 133.428 14.1468C132.893 14.6419 132.035 14.8895 130.928 14.8895C129.677 14.8895 128.784 14.4651 128.213 13.5809C127.641 12.7321 127.355 11.3528 127.355 9.47834V8.16976C127.355 6.36605 127.677 5.05747 128.284 4.20866C128.892 3.35986 129.785 2.93546 130.999 2.93546C132.107 2.93546 132.928 3.18302 133.464 3.67816C134 4.1733 134.322 4.98674 134.393 6.11848H138.001C137.822 4.1733 137.108 2.68789 135.858 1.59151C134.607 0.530504 133 0 130.963 0C129.499 0 128.213 0.353669 127.105 1.02564C125.998 1.69761 125.141 2.68789 124.569 3.9611C123.962 5.23431 123.676 6.68435 123.676 8.38196V9.44297C123.676 12.0601 124.319 14.1114 125.605 15.5968C126.891 17.0822 128.641 17.8249 130.892 17.8249C132.928 17.8249 134.607 17.2944 135.858 16.2334C137.108 15.1724 137.822 13.687 137.93 11.8126H134.357ZM102.956 0.247569V17.5774H106.564V12.8382L106.207 4.66844L110.923 17.5774H113.388L118.103 4.66844L117.746 12.8382V17.5774H121.354V0.247569H116.603L112.137 12.8028L107.636 0.247569H102.956ZM97.2047 11.8126C97.1333 12.8736 96.8118 13.6516 96.2759 14.1468C95.7401 14.6419 94.8827 14.8895 93.7753 14.8895C92.525 14.8895 91.6319 14.4651 91.0603 13.5809C90.4887 12.7321 90.2029 11.3528 90.2029 9.47834V8.16976C90.2029 6.36605 90.5244 5.05747 91.1317 4.20866C91.739 3.35986 92.6321 2.93546 93.8467 2.93546C94.9542 2.93546 95.7758 3.18302 96.3117 3.67816C96.8475 4.1733 97.169 4.98674 97.2405 6.11848H100.849C100.67 4.1733 99.9554 2.68789 98.7051 1.59151C97.4548 0.530504 95.8472 0 93.811 0C92.3463 0 91.0603 0.353669 89.9529 1.02564C88.8454 1.69761 87.9881 2.68789 87.4165 3.9611C86.8092 5.23431 86.5234 6.68435 86.5234 8.38196V9.44297C86.5234 12.0601 87.1664 14.1114 88.4525 15.5968C89.7385 17.0822 91.489 17.8249 93.7396 17.8249C95.7758 17.8249 97.4548 17.2944 98.7051 16.2334C99.9554 15.1724 100.67 13.687 100.777 11.8126H97.2047ZM77.0209 0.247569H73.9487L71.0908 12.5553L68.7331 0.247569H65.125L69.0189 17.5774H72.6627L75.5205 5.97701L78.3784 17.5774H82.0222L85.9161 0.247569H82.308L79.9503 12.5906L77.0209 0.247569Z" fill="#009FE3"/>
<path d="M43.6187 14.0053C41.4396 13.3687 39.832 11.3528 39.832 8.9832C39.832 8.5588 39.8678 8.1344 39.9749 7.74536L43.4401 8.16976C43.4401 8.16976 44.7619 8.2405 44.7262 10.5393C44.6547 12.8028 43.6187 14.0053 43.6187 14.0053Z" fill="#009FE3"/>
<path d="M46.6902 14.0053C48.8693 13.3687 50.4769 11.3528 50.4769 8.9832C50.4769 8.5588 50.4411 8.1344 50.334 7.74536L46.8688 8.16976C46.8688 8.16976 45.547 8.2405 45.5827 10.5393C45.6542 12.8028 46.6902 14.0053 46.6902 14.0053Z" fill="#009FE3"/>
<path d="M45.1553 5.19891C45.584 5.19891 45.977 5.55258 45.977 6.01235C45.977 6.36602 45.7269 6.61359 45.4411 6.75506C45.4054 6.79042 45.3697 6.79042 45.3697 6.86116C45.3697 6.93189 45.5483 6.93189 45.6197 6.96726L50.2638 7.49776C49.6208 5.30501 47.5845 3.7135 45.1553 3.7135C42.7619 3.7135 40.6899 5.30501 40.0469 7.49776L44.6909 6.96726C44.7624 6.96726 44.941 6.93189 44.941 6.86116C44.941 6.79042 44.9053 6.79042 44.8695 6.75506C44.5838 6.61359 44.3337 6.33065 44.3337 6.01235C44.3694 5.55258 44.7267 5.19891 45.1553 5.19891Z" fill="#009FE3"/>
<path d="M47.2602 17.7188L47.5817 17.542C47.5817 17.542 46.0813 15.5261 42.759 15.5261C41.0443 15.5261 40.1512 16.198 38.9723 16.198C38.9723 16.198 38.4722 16.2688 38.0078 15.9505C38.0078 15.9505 38.5794 16.7639 40.6514 16.7639C42.1517 16.7639 43.2592 15.8797 44.2952 15.8797C45.7598 15.9151 46.8315 17.2237 47.2602 17.7188Z" fill="#009FE3"/>
<path d="M42.6535 17.7188L42.332 17.542C42.332 17.542 43.8324 15.5261 47.1547 15.5261C48.8694 15.5261 49.7625 16.198 50.9414 16.198C50.9414 16.198 51.4415 16.2688 51.9059 15.9505C51.9059 15.9505 51.3344 16.7639 49.2624 16.7639C47.762 16.7639 46.6546 15.8797 45.6186 15.8797C44.1897 15.9151 43.0822 17.2237 42.6535 17.7188Z" fill="#009FE3"/>
<path d="M41.0449 15.3492C40.9734 15.4907 40.3304 15.3138 39.9017 15.4553C39.4016 15.5968 36.8652 15.9151 35.7578 13.2626C35.7578 13.2626 36.8295 14.3943 37.6512 14.465C38.4728 14.5358 39.3659 14.748 40.1518 15.1724L40.3304 15.2077C40.3304 15.2077 40.2947 15.137 40.2233 15.1016C40.1161 15.0309 39.3302 14.7833 38.9372 13.5455C38.7586 12.9089 38.7943 12.4491 38.6871 12.0955C38.6871 12.0955 39.5445 13.0504 39.9017 13.6516C40.2947 14.2882 40.3304 14.9602 41.0449 15.3492Z" fill="#009FE3"/>
<path d="M38.4395 14.0407C38.3681 14.1114 38.2252 14.0053 38.1537 13.9699C38.0823 13.9346 37.6536 13.7577 36.9391 13.5102C36.2246 13.2626 34.9029 12.1308 35.01 10.221C35.01 10.221 35.1887 10.9284 35.7602 11.4235C36.2961 11.8833 36.5104 11.954 36.832 12.343C37.1535 12.7321 37.9037 13.6163 37.9394 13.6163C37.9751 13.6163 37.9751 13.5455 37.9037 13.5102C37.8322 13.4748 37.6536 12.9797 37.5107 12.8028C37.3678 12.626 37.0106 11.4942 37.5464 10.1149C37.5464 10.1149 38.1537 11.1406 38.118 12.1662C38.0823 13.1919 38.0466 12.9443 38.2966 13.7931C38.3323 13.7931 38.4752 14.0053 38.4395 14.0407Z" fill="#009FE3"/>
<path d="M36.7946 11.5296C36.7588 11.565 36.6159 11.3528 36.473 11.1406C36.3659 10.9284 35.5442 10.0796 35.4371 9.90272C35.3299 9.72589 34.4011 8.62951 35.1155 6.96727C35.1155 6.96727 35.187 6.9319 35.187 7.32094C35.187 7.70997 35.5442 8.55878 35.83 8.94782C36.1158 9.30148 36.4016 9.90272 36.4373 10.5393C36.4373 10.5393 36.473 10.6454 36.5088 10.6808C36.5445 10.7162 36.5445 10.5747 36.5445 10.5747C36.5445 10.5747 36.5088 10.0088 36.5088 9.58442C36.5088 9.19538 36.6874 8.52341 37.0803 8.13438C37.0803 8.13438 37.259 7.95754 37.3661 7.70997C37.3661 7.70997 37.4376 7.56851 37.5447 7.4624C37.5447 7.4624 37.6162 8.59415 37.2232 9.61979C36.8303 10.6454 36.7231 10.8223 36.7588 11.3881C36.7946 11.3881 36.7946 11.5296 36.7946 11.5296Z" fill="#009FE3"/>
<path d="M36.1499 8.48804C36.1142 8.48804 36.0785 8.34657 36.0785 8.24047C36.0428 8.13437 35.9356 7.49777 35.8641 7.39167C35.7927 7.2502 35.5069 6.64896 35.4712 5.90626C35.4355 5.16355 35.7927 4.17328 36.5429 3.3952C36.5429 3.3952 36.5072 3.64277 36.3285 4.13791C36.1499 4.66841 36.2571 5.12818 36.2571 5.23428C36.2928 5.30502 36.3285 5.90625 36.3285 6.18919C36.3285 6.40139 36.2571 7.17946 36.2214 7.32093C36.2214 7.32093 36.1857 7.42703 36.2571 7.42703C36.3285 7.42703 36.3285 7.3563 36.3285 7.3563C36.3285 7.3563 36.3643 6.75506 36.8287 6.22456C37.2931 5.69405 38.079 5.34038 38.2219 5.09282C38.2219 5.09282 38.1504 5.94162 37.2216 6.9319C36.3643 7.81607 36.6143 7.3563 36.3643 8.099C36.3643 8.099 36.2571 8.38194 36.2571 8.41731C36.1857 8.48804 36.1499 8.48804 36.1499 8.48804Z" fill="#009FE3"/>
<path d="M36.6514 5.58799C36.6514 5.58799 36.6156 5.48188 36.7942 5.19895C36.9371 4.95138 36.7942 4.45624 36.9729 3.78427C37.1515 3.1123 37.5444 1.94519 38.9019 1.23785C38.9019 1.23785 38.759 1.37932 38.6876 1.45006C38.6162 1.55616 38.2589 2.26349 38.1517 2.72326C38.0446 3.2184 37.5802 4.03184 37.4015 4.20868C37.2229 4.38551 37.2944 4.42088 37.2944 4.42088C37.2944 4.42088 37.3658 4.38551 37.473 4.27941C37.5444 4.13794 38.0089 3.6428 38.509 3.5367C39.0091 3.4306 39.795 3.18303 39.8665 3.14767C39.8665 3.14767 39.0091 4.03184 38.2232 4.45624C37.4373 4.91601 37.3301 4.77455 36.8657 5.37578C36.8657 5.37578 36.6871 5.58799 36.6514 5.58799Z" fill="#009FE3"/>
<path d="M38.543 3.00621C38.543 3.00621 38.543 2.93548 38.6859 2.79401C38.8288 2.65254 38.9717 2.26351 39.2217 1.87447C39.4718 1.48543 40.0434 0.495161 41.5437 0.282959C41.5437 0.282959 41.0793 0.601261 41.0079 0.707362C40.9364 0.813463 40.5078 1.37933 40.2934 1.59154C40.0791 1.80374 39.5432 2.19277 39.3646 2.29887C39.3646 2.29887 39.2574 2.36961 39.2932 2.40497C39.3289 2.44034 39.4003 2.36961 39.4003 2.36961C39.4003 2.36961 39.9362 1.98057 40.5435 1.9452C41.1865 1.90984 41.8295 1.9452 41.9367 1.98057C41.9367 1.98057 41.3651 2.36961 39.9362 2.61718C38.543 2.86474 38.793 2.86474 38.5787 3.00621C38.6501 3.00621 38.5787 3.04158 38.543 3.00621Z" fill="#009FE3"/>
<path d="M41.0469 1.3793C41.0469 1.3793 41.0826 1.30857 41.2969 1.23783C41.5113 1.1671 41.5113 0.954898 42.19 0.601229C42.8688 0.247559 43.5832 0.0707244 44.3334 0.389027C44.3334 0.389027 44.0119 0.424394 43.9762 0.459761C43.9405 0.495128 43.4046 0.601228 43.2617 0.707329C43.1188 0.778063 42.3686 1.13173 42.0471 1.1671C41.7256 1.23783 41.9042 1.23783 41.9042 1.23783C41.9042 1.23783 41.9757 1.2732 42.0471 1.2732C42.1186 1.2732 42.7973 1.20247 43.226 1.34393C43.6547 1.4854 43.6547 1.55614 43.8333 1.62687C44.0119 1.6976 44.2263 1.73297 44.262 1.8037C44.262 1.8037 43.8333 1.83907 43.5475 1.83907C43.2975 1.83907 42.583 1.76834 42.2615 1.62687C41.94 1.4854 41.547 1.41467 41.4041 1.45003C41.2612 1.41467 41.1183 1.41467 41.0469 1.3793Z" fill="#009FE3"/>
<path d="M43.832 1.06103C43.832 1.06103 43.8678 1.02566 44.0464 0.990292C44.225 0.954926 44.2964 0.848825 44.7608 0.742724C45.2253 0.636623 45.9397 0.565889 46.5827 0.990292C46.5827 0.990292 46.1898 0.990292 46.0826 0.990292C46.0112 0.990292 45.2252 1.13176 45.0466 1.13176C44.868 1.13176 44.5108 1.06103 44.4751 1.09639C44.4393 1.16713 44.7966 1.23786 44.868 1.23786C44.9395 1.27323 45.1895 1.27323 45.511 1.59153C45.8325 1.90983 46.0826 2.08667 46.1183 2.12203C46.1183 2.12203 45.1538 1.90983 44.9037 1.76837C44.6537 1.6269 44.225 1.20249 44.1535 1.20249C44.1178 1.13176 43.832 1.06103 43.832 1.06103Z" fill="#009FE3"/>
<path d="M46.1172 1.45002C46.1172 1.45002 46.7245 1.41466 47.1889 1.69759C47.6533 1.98053 48.0105 2.3342 48.0463 2.58176C48.0463 2.58176 47.7962 2.36956 47.6176 2.3342C47.439 2.29883 46.9745 2.01589 46.8674 1.98053C46.7959 1.90979 46.2244 1.52076 46.1172 1.45002Z" fill="#009FE3"/>
<path d="M49.0117 15.4554C49.0117 15.4554 49.0832 15.3846 49.4047 15.1017C49.6905 14.8541 49.7619 14.4651 50.1192 13.8992C50.4407 13.3334 50.7265 12.9443 51.3695 12.3431C51.3695 12.3431 51.2623 12.7675 51.2266 12.9089C51.2266 13.0504 51.1194 13.7931 50.7264 14.2529C50.3692 14.6773 50.3335 14.7834 49.9048 15.0663C49.9048 15.0663 49.7262 15.1724 49.7619 15.2078C49.7619 15.2432 50.0477 15.2078 50.0477 15.2078C50.0477 15.2078 50.3692 15.1017 50.4764 15.031C50.5836 14.9602 51.0122 14.748 51.1909 14.6773C51.3695 14.6066 51.5124 14.5358 51.9053 14.4297C52.2983 14.3236 53.7272 13.97 54.2631 13.0504C54.2631 13.0504 54.0845 13.5809 53.9058 13.8285C53.6915 14.0761 52.5483 15.5968 50.9051 15.5615C50.9051 15.5615 50.262 15.5261 49.9405 15.4554C49.619 15.3846 49.4761 15.3846 49.4404 15.42C49.369 15.4554 49.0832 15.4907 49.0117 15.4554Z" fill="#009FE3"/>
<path d="M52.6576 10.0088C52.6576 10.0088 52.0503 10.9637 51.9074 12.3077C51.7645 13.6516 52.0145 13.2626 51.7645 13.8638C51.7645 13.8638 51.693 14.0053 51.7288 14.0406C51.7645 14.0406 51.8716 13.9699 52.3003 13.7223C52.729 13.4748 53.1577 13.5455 54.0865 12.6613C55.0153 11.7772 55.1939 10.0442 55.2297 9.90271C55.2297 9.90271 55.0868 10.0442 55.0153 10.2564C54.9439 10.5039 54.801 10.6808 54.7653 10.7161C54.7295 10.7515 53.7293 11.8479 53.6221 11.9186C53.5149 12.0247 52.9076 12.7321 52.8005 12.9443C52.6576 13.1565 52.3003 13.5101 52.2289 13.4748C52.2289 13.4748 52.2289 13.404 52.2646 13.3333C52.3003 13.2626 52.5861 12.9089 52.6933 12.4845C52.8005 12.0601 52.8362 11.7772 52.8362 11.5296C52.8362 11.2467 52.6576 10.221 52.6576 10.0088Z" fill="#009FE3"/>
<path d="M53.4773 11.3174C53.4773 11.3174 53.4059 11.1759 53.4773 11.0698C53.5131 10.9991 53.5488 10.5393 53.3702 10.1503C53.1915 9.76126 52.7986 8.73562 52.8343 8.02828C52.87 7.32094 52.9415 7.21484 52.9415 7.21484C52.9415 7.21484 53.1201 7.78071 53.1915 7.88681C53.263 7.99291 53.8346 9.01855 53.7989 9.58442C53.7631 10.1503 53.7274 10.3271 53.7631 10.3271C53.7989 10.3271 53.8703 10.2564 53.8703 10.1857C53.8703 10.1149 53.9775 9.72589 54.1561 9.26612C54.3347 8.80635 55.0849 7.81608 55.2635 7.1441C55.2635 7.1441 55.5136 8.31121 54.8348 9.40759C54.1918 10.504 54.1204 10.2564 53.8346 10.7515C53.5488 11.282 53.5131 11.3174 53.4773 11.3174Z" fill="#009FE3"/>
<path d="M54.0863 8.24049C54.0506 8.24049 54.0506 7.78072 53.9434 7.63926C53.8363 7.49779 52.8003 6.29531 52.5859 5.1282C52.5859 5.1282 53.229 5.76481 53.3361 5.83554C53.4433 5.90628 53.872 6.33068 54.0149 6.68435C54.1578 7.03802 54.1221 7.35632 54.1578 7.39169C54.1935 7.39169 54.1935 6.96728 54.1935 6.96728C54.1935 6.96728 54.1935 6.15384 54.2649 5.76481C54.3364 5.37577 54.515 4.73917 54.4436 4.3855C54.4436 4.3855 54.8365 4.98674 54.8008 5.83554C54.7651 6.68435 54.4078 7.35632 54.3721 7.46242C54.3364 7.56852 54.1935 7.99292 54.1935 8.06366C54.1935 8.13439 54.0863 8.24049 54.0863 8.24049Z" fill="#009FE3"/>
<path d="M52.8681 2.15735C52.8681 2.15735 54.1899 2.93542 53.9755 5.55257C53.9755 5.55257 53.9755 5.65868 53.9041 5.55257C53.8326 5.41111 53.5468 5.05744 53.4039 4.9867C53.261 4.91597 52.0822 4.20863 51.582 3.11226C51.582 3.11226 51.6535 3.07689 51.7606 3.18299C51.8678 3.28909 52.2251 3.46593 52.2965 3.50129C52.3679 3.53666 52.7609 3.64276 53.0824 3.96106C53.4039 4.27936 53.5111 4.52693 53.5826 4.73914C53.5826 4.73914 53.654 4.80987 53.6183 4.59767C53.5468 4.42083 53.5468 4.27936 53.4039 4.0318C53.261 3.78423 53.1181 3.35982 53.0824 3.04152C53.0824 2.75859 53.011 2.33418 52.8681 2.15735Z" fill="#009FE3"/>
<path d="M52.6558 3.07693C52.6558 3.07693 52.6915 2.9001 52.5486 2.65253C52.4057 2.40496 52.5129 2.12203 52.1199 1.48542C51.9056 1.13175 51.1197 0.848816 51.1197 0.848816C51.1197 0.848816 51.334 1.16712 51.4769 1.34395C51.6198 1.52079 51.6555 1.66226 51.727 1.73299C51.7627 1.80372 52.0485 2.08666 52.1556 2.22813C52.1914 2.26349 52.2271 2.33423 52.2271 2.36959C52.2271 2.40496 52.1199 2.33423 52.0842 2.29886C52.0485 2.26349 51.5841 1.90982 51.2625 1.83909C50.941 1.76836 50.3695 1.73299 50.2266 1.66226C50.2266 1.66226 50.9053 2.26349 51.6555 2.4757C52.4057 2.6879 52.6558 3.07693 52.6558 3.07693Z" fill="#009FE3"/>
<path d="M51.0853 1.4854C51.0853 1.4854 50.4066 0.565857 49.1562 0.565857C49.1562 0.565857 49.2277 0.636591 49.3706 0.671958C49.5135 0.707325 49.7636 0.954893 49.8707 1.02563C50.0136 1.09636 50.2994 1.30856 51.0853 1.4854Z" fill="#009FE3"/>
<path d="M13.4315 0.212219V11.6357C13.4315 12.626 13.2529 13.5102 12.9314 14.2883C12.6098 15.0663 12.1454 15.7029 11.5381 16.1981C10.9308 16.7286 10.2521 17.1176 9.43044 17.3652C8.6088 17.6128 7.71572 17.7542 6.75118 17.7542C5.78664 17.7542 4.89356 17.6128 4.07192 17.3652C3.25027 17.1176 2.50008 16.6932 1.9285 16.1981C1.3212 15.6676 0.856797 15.031 0.535286 14.2883C0.213774 13.5102 0.0351562 12.626 0.0351562 11.6357V0.212219H3.64323V11.6357C3.64323 12.7675 3.92902 13.5809 4.46487 14.1114C5.00073 14.6419 5.78664 14.8895 6.75118 14.8895C7.71572 14.8895 8.50163 14.6419 9.03749 14.1114C9.57334 13.5809 9.85913 12.7675 9.85913 11.6357V0.212219H13.4315Z" fill="#009FE3"/>
<path d="M30.5773 17.5067H26.9693L19.9675 6.1185V17.5067H16.3594V0.212219H19.9675L27.005 11.6004V0.212219H30.5773V17.5067Z" fill="#009FE3"/>
<path d="M2.64241 28.6826C1.89221 28.6826 1.28491 28.435 0.784783 27.9752C0.320377 27.5155 0.0703125 26.8788 0.0703125 26.1008V25.9593C0.0703125 25.4288 0.177483 24.969 0.356101 24.5446C0.570442 24.1202 0.85623 23.8019 1.21347 23.5897C1.5707 23.3775 1.99938 23.2714 2.46379 23.2714C3.17826 23.2714 3.71411 23.4836 4.14279 23.9434C4.53575 24.4032 4.75009 25.0398 4.75009 25.8532V26.4191H1.46353C1.49925 26.7727 1.64215 27.0203 1.85649 27.2325C2.07083 27.4447 2.35662 27.5508 2.71385 27.5508C3.24971 27.5508 3.64267 27.374 3.96418 26.985L4.64292 27.763C4.42858 28.046 4.14279 28.2935 3.82128 28.4704C3.42832 28.6118 3.07109 28.6826 2.64241 28.6826ZM2.46379 24.4032C2.178 24.4032 1.96366 24.5093 1.78504 24.6861C1.60642 24.8629 1.49925 25.1459 1.46353 25.4995H3.3926V25.3934C3.3926 25.0751 3.32115 24.8629 3.14254 24.6861C2.99964 24.4739 2.74958 24.4032 2.46379 24.4032Z" fill="#009FE3"/>
<path d="M6.85636 23.3775L6.89208 23.9788C7.24932 23.519 7.74945 23.2714 8.35675 23.2714C8.8926 23.2714 9.32128 23.4483 9.57135 23.7666C9.82141 24.0849 9.96431 24.58 9.96431 25.2166V28.5765H8.57109V25.252C8.57109 24.969 8.49964 24.7568 8.39247 24.6154C8.2853 24.4739 8.10668 24.4032 7.82089 24.4032C7.42794 24.4032 7.14215 24.58 6.96353 24.8983V28.5765H5.57031V23.3775H6.85636Z" fill="#009FE3"/>
<path d="M13.0386 26.8789L14.0031 23.3776H15.4321L13.6816 28.5765H12.3598L10.6094 23.3776H12.0383L13.0386 26.8789Z" fill="#009FE3"/>
<path d="M16.0742 22.0336C16.0742 21.8214 16.1457 21.6446 16.2886 21.5031C16.4315 21.3616 16.6101 21.2909 16.8601 21.2909C17.1102 21.2909 17.2888 21.3616 17.4317 21.5031C17.5746 21.6446 17.6461 21.8214 17.6461 22.0336C17.6461 22.2458 17.5746 22.4226 17.4317 22.5641C17.2888 22.7056 17.1102 22.7763 16.8601 22.7763C16.6101 22.7763 16.4315 22.7056 16.2886 22.5641C16.1457 22.4226 16.0742 22.2458 16.0742 22.0336ZM17.5389 28.5765H16.1457V23.3775H17.5389V28.5765Z" fill="#009FE3"/>
<path d="M21.6481 24.6861C21.4695 24.6508 21.2908 24.6508 21.1479 24.6508C20.6121 24.6508 20.2906 24.8276 20.112 25.1813V28.5765H18.7188V23.3776H20.0048L20.0405 24.0142C20.3263 23.519 20.6835 23.3068 21.1837 23.3068C21.3266 23.3068 21.4695 23.3422 21.6124 23.3776L21.6481 24.6861Z" fill="#009FE3"/>
<path d="M21.9693 25.9239C21.9693 25.3934 22.0765 24.9337 22.2551 24.5446C22.4337 24.1556 22.7195 23.8373 23.1125 23.5897C23.4697 23.3775 23.8984 23.2714 24.3985 23.2714C25.0773 23.2714 25.6488 23.4836 26.1132 23.908C26.5419 24.3324 26.792 24.9337 26.8634 25.6764V26.03C26.8634 26.8435 26.6491 27.4801 26.1847 27.9399C25.7203 28.3996 25.1487 28.6472 24.3985 28.6472C23.6483 28.6472 23.0767 28.3996 22.6123 27.9399C22.1479 27.4801 21.9336 26.8081 21.9336 25.9947V25.9239H21.9693ZM23.3625 26.03C23.3625 26.5252 23.4697 26.9142 23.6483 27.1618C23.8269 27.4093 24.1127 27.5508 24.4342 27.5508C24.7558 27.5508 25.0415 27.4093 25.2202 27.1618C25.3988 26.9142 25.5059 26.4898 25.5059 25.9239C25.5059 25.4288 25.3988 25.0751 25.2202 24.7922C25.0058 24.5446 24.7558 24.4032 24.3985 24.4032C24.077 24.4032 23.7912 24.5446 23.6126 24.7922C23.434 25.0751 23.3625 25.4642 23.3625 26.03Z" fill="#009FE3"/>
<path d="M29.0405 23.3775L29.0762 23.9788C29.4335 23.519 29.9336 23.2714 30.5409 23.2714C31.0768 23.2714 31.5054 23.4483 31.7555 23.7666C32.0056 24.0849 32.1485 24.58 32.1485 25.2166V28.5765H30.7553V25.252C30.7553 24.969 30.6838 24.7568 30.5766 24.6154C30.4695 24.4739 30.2908 24.4032 29.9693 24.4032C29.5764 24.4032 29.2906 24.58 29.112 24.8983V28.5765H27.7188V23.3775H29.0405Z" fill="#009FE3"/>
<path d="M34.5802 23.3775L34.6159 23.9434C34.9731 23.4836 35.4732 23.2714 36.0805 23.2714C36.7593 23.2714 37.188 23.519 37.438 24.0495C37.7953 23.519 38.3311 23.2714 38.9741 23.2714C39.5457 23.2714 39.9387 23.4483 40.2245 23.7666C40.5103 24.0849 40.6174 24.58 40.6174 25.252V28.5765H39.2957V25.252C39.2957 24.969 39.2242 24.7568 39.117 24.6154C39.0099 24.4739 38.7955 24.4032 38.5097 24.4032C38.0811 24.4032 37.7953 24.6154 37.6524 25.0044V28.5765H36.2592V25.252C36.2592 24.9337 36.1877 24.7215 36.0805 24.58C35.9734 24.4385 35.759 24.3678 35.4732 24.3678C35.0803 24.3678 34.7945 24.5446 34.6159 24.8629V28.5411H33.2227V23.3775H34.5802Z" fill="#009FE3"/>
<path d="M44.1541 28.6826C43.4039 28.6826 42.7966 28.435 42.2965 27.9752C41.8321 27.5155 41.582 26.8788 41.582 26.1008V25.9593C41.582 25.4288 41.6892 24.969 41.8678 24.5446C42.0822 24.1202 42.3679 23.8019 42.7252 23.5897C43.0824 23.3775 43.5111 23.2714 43.9755 23.2714C44.69 23.2714 45.2258 23.4836 45.6545 23.9434C46.0475 24.4032 46.2618 25.0398 46.2618 25.8532V26.4191H42.9752C43.011 26.7727 43.1539 27.0203 43.3682 27.2325C43.5825 27.4447 43.8683 27.5508 44.2256 27.5508C44.7614 27.5508 45.1544 27.374 45.4759 26.985L46.1546 27.763C45.9403 28.046 45.6545 28.2935 45.333 28.4704C44.9758 28.6118 44.5828 28.6826 44.1541 28.6826ZM44.0112 24.4032C43.7254 24.4032 43.5111 24.5093 43.3325 24.6861C43.1539 24.8629 43.0467 25.1459 43.011 25.4995H44.94V25.3934C44.94 25.0751 44.8686 24.8629 44.69 24.6861C44.5114 24.4739 44.297 24.4032 44.0112 24.4032Z" fill="#009FE3"/>
<path d="M48.4044 23.3775L48.4401 23.9788C48.7973 23.519 49.2975 23.2714 49.9048 23.2714C50.4406 23.2714 50.8693 23.4483 51.1194 23.7666C51.3694 24.0849 51.5123 24.58 51.5123 25.2166V28.5765H50.1191V25.252C50.1191 24.969 50.0477 24.7568 49.9405 24.6154C49.8333 24.4739 49.619 24.4032 49.2975 24.4032C48.9045 24.4032 48.6187 24.58 48.4401 24.8983V28.5765H47.0469V23.3775H48.4044Z" fill="#009FE3"/>
<path d="M54.2997 22.1043V23.3775H55.1928V24.4032H54.2997V26.9849C54.2997 27.1618 54.3354 27.3032 54.4068 27.4093C54.4783 27.4801 54.6212 27.5508 54.8355 27.5508C54.9784 27.5508 55.1213 27.5508 55.2285 27.5155V28.5765C54.9427 28.6472 54.6926 28.7179 54.4068 28.7179C53.4423 28.7179 52.9422 28.2228 52.9422 27.2325V24.4032H52.1562V23.3775H52.9064V22.1043H54.2997Z" fill="#009FE3"/>
<path d="M4.89406 35.4016C4.89406 36.215 4.71544 36.8516 4.35821 37.3114C4.00097 37.7711 3.50084 38.0187 2.89354 38.0187C2.35769 38.0187 1.96473 37.8419 1.64322 37.4528V39.8932H0.25V32.749H1.53605L1.57177 33.2442C1.89328 32.8551 2.35769 32.6429 2.89354 32.6429C3.53657 32.6429 4.0367 32.8905 4.35821 33.3503C4.71544 33.8101 4.89406 34.482 4.89406 35.3308V35.4016ZM3.50084 35.2955C3.50084 34.8003 3.4294 34.4467 3.25078 34.1637C3.07216 33.9162 2.82209 33.7747 2.50058 33.7747C2.0719 33.7747 1.78611 33.9515 1.60749 34.2698V36.3918C1.78611 36.7455 2.0719 36.9223 2.50058 36.9223C3.17933 36.9223 3.50084 36.3918 3.50084 35.2955Z" fill="#009FE3"/>
<path d="M8.71839 34.0584C8.53977 34.023 8.36116 34.023 8.21826 34.023C7.68241 34.023 7.3609 34.1999 7.18228 34.5535V37.9488H5.78906V32.7498H7.07511L7.11083 33.3864C7.39662 32.8913 7.75386 32.6791 8.25399 32.6791C8.39688 32.6791 8.53977 32.7144 8.68267 32.7498L8.71839 34.0584Z" fill="#009FE3"/>
<path d="M9.03963 35.2963C9.03963 34.7658 9.1468 34.306 9.32542 33.9169C9.53976 33.5279 9.78982 33.2096 10.1828 32.962C10.54 32.7498 10.9687 32.6437 11.4688 32.6437C12.1476 32.6437 12.7192 32.8559 13.1836 33.2803C13.6122 33.7047 13.8623 34.306 13.9338 35.0487V35.4024C13.9338 36.2158 13.7194 36.8524 13.255 37.3122C12.8263 37.8073 12.219 38.0195 11.4688 38.0195C10.7186 38.0195 10.1471 37.7719 9.68265 37.3122C9.25397 36.817 9.00391 36.1804 9.00391 35.367V35.2963H9.03963ZM10.3971 35.4024C10.3971 35.8975 10.5043 36.2865 10.6829 36.5341C10.8615 36.7817 11.1473 36.9231 11.4688 36.9231C11.7903 36.9231 12.0761 36.7817 12.2547 36.5341C12.4334 36.2865 12.5405 35.8621 12.5405 35.2963C12.5405 34.8011 12.4334 34.4474 12.2547 34.1645C12.0761 33.8816 11.7903 33.7755 11.4688 33.7755C11.1473 33.7755 10.8615 33.9169 10.6829 34.1645C10.5043 34.4121 10.3971 34.8365 10.3971 35.4024Z" fill="#009FE3"/>
<path d="M14.6094 35.2962C14.6094 34.4828 14.788 33.8462 15.181 33.351C15.5739 32.8559 16.074 32.6083 16.7171 32.6083C17.2886 32.6083 17.7173 32.8205 18.0388 33.2096L18.1103 32.7144H19.3606V37.7365C19.3606 38.1963 19.2534 38.5854 19.0391 38.939C18.8247 39.2927 18.539 39.5403 18.1817 39.7171C17.8245 39.8939 17.3601 39.9647 16.86 39.9647C16.467 39.9647 16.1098 39.8939 15.7525 39.7525C15.3953 39.611 15.1095 39.3988 14.9309 39.1512L15.5382 38.3024C15.8954 38.6915 16.2884 38.8683 16.7885 38.8683C17.1457 38.8683 17.4315 38.7622 17.6459 38.5854C17.8602 38.3732 17.9674 38.1256 17.9674 37.7365V37.489C17.6459 37.8426 17.2172 38.0195 16.7171 38.0195C16.1098 38.0195 15.6096 37.7719 15.2167 37.2768C14.8237 36.7816 14.6451 36.145 14.6451 35.3316V35.2962H14.6094ZM16.0026 35.4023C16.0026 35.8621 16.1098 36.2511 16.2884 36.4987C16.467 36.7816 16.7171 36.8877 17.0743 36.8877C17.503 36.8877 17.7888 36.7109 17.9674 36.428V34.2352C17.7888 33.9169 17.503 33.7754 17.0743 33.7754C16.7528 33.7754 16.467 33.9169 16.2884 34.1999C16.1098 34.4474 16.0026 34.8718 16.0026 35.4023Z" fill="#009FE3"/>
<path d="M23.3629 34.0584C23.1843 34.023 23.0057 34.023 22.8628 34.023C22.3269 34.023 22.0054 34.1999 21.8268 34.5535V37.9488H20.4336V32.7498H21.7196L21.7554 33.3864C22.0412 32.8913 22.3984 32.6791 22.8985 32.6791C23.0414 32.6791 23.1843 32.7144 23.3272 32.7498L23.3629 34.0584Z" fill="#009FE3"/>
<path d="M26.8981 37.9488C26.8267 37.8073 26.791 37.6658 26.7553 37.489C26.4337 37.878 26.0051 38.0549 25.4692 38.0549C24.9691 38.0549 24.5404 37.9134 24.2189 37.5951C23.8974 37.3122 23.7188 36.9231 23.7188 36.4634C23.7188 35.8975 23.9331 35.4731 24.326 35.1902C24.719 34.9072 25.3263 34.7304 26.0765 34.7304H26.7195V34.4475C26.7195 34.1999 26.6481 34.023 26.5409 33.8816C26.4337 33.7401 26.2194 33.6694 25.9693 33.6694C25.755 33.6694 25.5407 33.7401 25.4335 33.8462C25.2906 33.9523 25.2191 34.1291 25.2191 34.306H23.8259C23.8259 33.9877 23.9331 33.7401 24.1117 33.4572C24.2903 33.2096 24.5404 32.9974 24.8976 32.8559C25.2191 32.7145 25.6121 32.6437 26.0408 32.6437C26.6838 32.6437 27.1839 32.8206 27.5412 33.1389C27.8984 33.4572 28.1127 33.9169 28.1127 34.4828V36.7463C28.1127 37.2414 28.1842 37.6305 28.3271 37.878V37.9488H26.8981ZM25.7907 36.9939C26.0051 36.9939 26.1837 36.9585 26.3623 36.8524C26.5409 36.7463 26.6481 36.6402 26.7553 36.4987V35.6146H26.2551C25.5764 35.6146 25.1834 35.8621 25.1477 36.3219V36.3926C25.1477 36.5695 25.2191 36.7109 25.3263 36.817C25.3978 36.9231 25.5764 36.9939 25.7907 36.9939Z" fill="#009FE3"/>
<path d="M30.5071 32.7498L30.5428 33.3157C30.9 32.8559 31.4002 32.6437 32.0075 32.6437C32.6862 32.6437 33.1149 32.8913 33.3649 33.4218C33.7222 32.8913 34.258 32.6437 34.9011 32.6437C35.4726 32.6437 35.8656 32.8206 36.1514 33.1389C36.4372 33.4572 36.5443 33.9523 36.5443 34.6243V37.9488H35.1511V34.6243C35.1511 34.3414 35.0797 34.1291 34.9725 33.9877C34.8653 33.8462 34.651 33.7755 34.3652 33.7755C33.9365 33.7755 33.6507 33.9877 33.5078 34.3767V37.9488H32.1146V34.6243C32.1146 34.306 32.0432 34.0938 31.936 33.9523C31.8288 33.8108 31.6145 33.7401 31.3287 33.7401C30.9357 33.7401 30.65 33.9169 30.4713 34.2353V37.9134H29.0781V32.7498H30.5071Z" fill="#009FE3"/>
<path d="M39.0093 32.7498L39.045 33.3157C39.4022 32.8559 39.9024 32.6437 40.5097 32.6437C41.1884 32.6437 41.6171 32.8913 41.8671 33.4218C42.2244 32.8913 42.7602 32.6437 43.4033 32.6437C43.9748 32.6437 44.3678 32.8206 44.6536 33.1389C44.9394 33.4572 45.0465 33.9523 45.0465 34.6243V37.9488H43.6533V34.6243C43.6533 34.3414 43.5819 34.1291 43.4747 33.9877C43.3675 33.8462 43.1532 33.7755 42.8674 33.7755C42.4387 33.7755 42.1529 33.9877 42.01 34.3767V37.9488H40.724V34.6243C40.724 34.306 40.6526 34.0938 40.5454 33.9523C40.4382 33.8108 40.2239 33.7401 39.9381 33.7401C39.5451 33.7401 39.2593 33.9169 39.0807 34.2353V37.9134H37.6875V32.7498H39.0093Z" fill="#009FE3"/>
<path d="M48.5838 38.0549C47.8336 38.0549 47.2263 37.8073 46.7262 37.3475C46.2618 36.8878 46.0117 36.2512 46.0117 35.4731V35.3316C46.0117 34.8011 46.1189 34.3413 46.2975 33.9169C46.5118 33.4925 46.7976 33.1742 47.1549 32.962C47.5121 32.7498 47.9408 32.6437 48.4052 32.6437C49.1197 32.6437 49.6555 32.8559 50.0842 33.3157C50.4772 33.7755 50.6915 34.4121 50.6915 35.2255V35.7914H47.4049C47.4407 36.1451 47.5836 36.3926 47.7979 36.6048C48.0122 36.817 48.298 36.9231 48.6553 36.9231C49.1911 36.9231 49.5841 36.7463 49.9056 36.3573L50.5843 37.1353C50.37 37.4183 50.0842 37.6658 49.7627 37.8427C49.4055 37.9488 49.0125 38.0549 48.5838 38.0549ZM48.4409 33.7755C48.1551 33.7755 47.9408 33.8816 47.7622 34.0584C47.5836 34.2352 47.4764 34.5182 47.4407 34.8719H49.3697V34.7658C49.3697 34.4475 49.2983 34.2352 49.1197 34.0584C48.941 33.8462 48.7267 33.7755 48.4409 33.7755Z" fill="#009FE3"/>
</g>
<defs>
<clipPath id="clip0">
<rect width="138" height="40" fill="white"/>
</clipPath>
</defs>
</svg>
