<svg width="17" height="16" viewBox="0 0 17 16" xmlns="http://www.w3.org/2000/svg">
<path d="M0.5 0L3.5 10.2857L5.5 5.71429L9.5 3.42857L0.5 0Z" />
<path d="M15.5 10.286H7.5C6.948 10.286 6.5 9.90199 6.5 9.42885V7.71456C6.5 7.24142 6.948 6.85742 7.5 6.85742H15.5C16.052 6.85742 16.5 7.24142 16.5 7.71456V9.42885C16.5 9.90199 16.052 10.286 15.5 10.286Z" />
<path d="M15.5 15.9999H7.5C6.948 15.9999 6.5 15.6159 6.5 15.1427V13.4284C6.5 12.9553 6.948 12.5713 7.5 12.5713H15.5C16.052 12.5713 16.5 12.9553 16.5 13.4284V15.1427C16.5 15.6159 16.052 15.9999 15.5 15.9999Z" />
</svg>
