<svg width="20" height="20" viewBox="0 0 20 20" xmlns="http://www.w3.org/2000/svg">
<path fill-rule="evenodd" clip-rule="evenodd" d="M7.17144 4.14544L9.11844 6.61144C9.69687 6.46145 10.304 6.46145 10.8824 6.61144L12.8294 4.14544C11.9469 3.72042 10.98 3.49972 10.0004 3.49972C9.0209 3.49972 8.05396 3.72042 7.17144 4.14544ZM15.8544 7.17044L13.3884 9.11744C13.5384 9.69544 13.5384 10.3034 13.3884 10.8814L15.8544 12.8284C16.2795 11.9459 16.5002 10.979 16.5002 9.99944C16.5002 9.0199 16.2795 8.05296 15.8544 7.17044ZM12.8294 15.8534L10.8824 13.3874C10.3044 13.5374 9.69644 13.5374 9.11844 13.3874L7.17144 15.8534C8.05396 16.2785 9.0209 16.4992 10.0004 16.4992C10.98 16.4992 11.9469 16.2785 12.8294 15.8534ZM4.14644 12.8294L6.61244 10.8824C6.46245 10.304 6.46245 9.69687 6.61244 9.11844L4.14644 7.17044C3.72142 8.05296 3.50072 9.0199 3.50072 9.99944C3.50072 10.979 3.72142 11.9469 4.14644 12.8294ZM5.63044 3.29644C6.93052 2.45038 8.44829 2 9.99944 2C11.5506 2 13.0684 2.45038 14.3684 3.29644C15.2996 3.90444 16.0944 4.69922 16.7024 5.63044C17.5485 6.93052 17.9989 8.4483 17.9989 9.99944C17.9989 11.5506 17.5485 13.0684 16.7024 14.3684C16.0944 15.2996 15.2996 16.0944 14.3684 16.7024C13.0684 17.5485 11.5506 17.9989 9.99944 17.9989C8.44829 17.9989 6.93052 17.5485 5.63044 16.7024C4.69924 16.0944 3.90446 15.2996 3.29644 14.3684C2.45038 13.0684 2 11.5506 2 9.99944C2 8.4483 2.45038 6.93052 3.29644 5.63044C3.90442 4.6992 4.6992 3.90442 5.63044 3.29644ZM10.8284 8.17844C10.4574 8.01089 10.0442 7.9601 9.64358 8.03278C9.243 8.10547 8.87397 8.29821 8.58544 8.58544C8.29649 8.8729 8.10257 9.242 8.0298 9.64304C7.95703 10.0441 8.0089 10.4578 8.17844 10.8284C8.37795 11.2684 8.73047 11.6209 9.17044 11.8204C9.54149 11.988 9.95471 12.0388 10.3553 11.9661C10.7559 11.8934 11.1249 11.7007 11.4134 11.4134C11.5894 11.2384 11.7234 11.0394 11.8204 10.8284C11.988 10.4574 12.0388 10.0442 11.9661 9.64358C11.8934 9.243 11.7007 8.87397 11.4134 8.58544C11.2445 8.41572 11.0463 8.27785 10.8284 8.17844Z" />
</svg>
