<svg width="22" height="23" viewBox="0 0 22 23" xmlns="http://www.w3.org/2000/svg">
<path fill-rule="evenodd" clip-rule="evenodd" d="M4.9498 3.18945C4.5122 3.18945 4.09251 3.36329 3.78308 3.67273C3.47364 3.98216 3.2998 4.40185 3.2998 4.83945V19.1395C3.2998 19.5771 3.47364 19.9967 3.78308 20.3062C4.09251 20.6156 4.5122 20.7895 4.9498 20.7895H17.0498C17.4874 20.7895 17.9071 20.6156 18.2165 20.3062C18.526 19.9967 18.6998 19.5771 18.6998 19.1395V9.37255C18.6994 8.93509 18.5253 8.51569 18.2158 8.20655L13.6838 3.67235C13.5304 3.51903 13.3482 3.39746 13.1478 3.3146C12.9473 3.23174 12.7325 3.18921 12.5156 3.18945H4.9498ZM7.4248 12.5395C7.206 12.5395 6.99616 12.6264 6.84144 12.7811C6.68672 12.9358 6.5998 13.1457 6.5998 13.3645C6.5998 13.5833 6.68672 13.7931 6.84144 13.9478C6.99616 14.1025 7.206 14.1895 7.4248 14.1895H14.5748C14.7936 14.1895 15.0035 14.1025 15.1582 13.9478C15.3129 13.7931 15.3998 13.5833 15.3998 13.3645C15.3998 13.1457 15.3129 12.9358 15.1582 12.7811C15.0035 12.6264 14.7936 12.5395 14.5748 12.5395H7.4248ZM7.4248 15.8395C7.206 15.8395 6.99616 15.9264 6.84144 16.0811C6.68672 16.2358 6.5998 16.4457 6.5998 16.6645C6.5998 16.8833 6.68672 17.0931 6.84144 17.2478C6.99616 17.4025 7.206 17.4895 7.4248 17.4895H14.5748C14.7936 17.4895 15.0035 17.4025 15.1582 17.2478C15.3129 17.0931 15.3998 16.8833 15.3998 16.6645C15.3998 16.4457 15.3129 16.2358 15.1582 16.0811C15.0035 15.9264 14.7936 15.8395 14.5748 15.8395H7.4248Z" />
</svg>
