<svg width="20" height="20" viewBox="0 0 20 20" fill="none" xmlns="http://www.w3.org/2000/svg">
<path d="M11.6155 13.9956C11.5764 13.9569 11.5235 13.9351 11.4684 13.9351C11.4133 13.9351 11.3604 13.9569 11.3212 13.9956L8.2953 17.0216C6.89431 18.4226 4.5298 18.571 2.98298 17.0216C1.43355 15.4722 1.58198 13.1103 2.98298 11.7093L6.00892 8.68331C6.08965 8.60259 6.08965 8.46978 6.00892 8.38905L4.97249 7.35263C4.93334 7.31386 4.88047 7.29211 4.82536 7.29211C4.77026 7.29211 4.71739 7.31386 4.67823 7.35263L1.65229 10.3786C-0.550763 12.5816 -0.550763 16.1466 1.65229 18.3471C3.85534 20.5475 7.42033 20.5501 9.62078 18.3471L12.6467 15.3211C12.7275 15.2404 12.7275 15.1076 12.6467 15.0269L11.6155 13.9956ZM18.3497 1.65229C16.1466 -0.550763 12.5816 -0.550763 10.3812 1.65229L7.35263 4.67823C7.31386 4.71739 7.29211 4.77026 7.29211 4.82536C7.29211 4.88047 7.31386 4.93334 7.35263 4.9725L8.38645 6.00632C8.46717 6.08704 8.59998 6.08704 8.68071 6.00632L11.7067 2.98037C13.1076 1.57938 15.4722 1.43094 17.019 2.98037C18.5684 4.5298 18.42 6.8917 17.019 8.2927L13.993 11.3186C13.9543 11.3578 13.9325 11.4107 13.9325 11.4658C13.9325 11.5209 13.9543 11.5738 13.993 11.6129L15.0295 12.6493C15.1102 12.7301 15.243 12.7301 15.3237 12.6493L18.3497 9.62339C20.5501 7.42033 20.5501 3.85534 18.3497 1.65229ZM12.5556 6.36307C12.5164 6.3243 12.4636 6.30256 12.4085 6.30256C12.3533 6.30256 12.3005 6.3243 12.2613 6.36307L6.36307 12.2587C6.3243 12.2979 6.30256 12.3507 6.30256 12.4058C6.30256 12.4609 6.3243 12.5138 6.36307 12.553L7.39429 13.5842C7.47502 13.6649 7.60783 13.6649 7.68855 13.5842L13.5842 7.68855C13.6649 7.60783 13.6649 7.47502 13.5842 7.39429L12.5556 6.36307Z" fill="white"/>
</svg>
