<svg width="20" height="17" viewBox="0 0 20 17" xmlns="http://www.w3.org/2000/svg">
<path fill-rule="evenodd" clip-rule="evenodd" d="M17.644 2.68764C18.4915 2.15723 19.1419 1.31619 19.4471 0.314315C18.6535 0.806659 17.7766 1.16272 16.841 1.35548C16.0944 0.520584 15.0273 0 13.8463 0C11.5807 0 9.74467 1.92149 9.74467 4.29113C9.74467 4.62755 9.77872 4.95537 9.84915 5.26845C6.4401 5.08919 3.41727 3.38257 1.39226 0.784559C1.03892 1.42055 0.837002 2.15723 0.837002 2.94302C0.837002 4.4311 1.56131 5.74484 2.66244 6.51589C1.98979 6.49379 1.35705 6.29857 0.802958 5.97934V6.03214C0.802958 8.11202 2.21635 9.84689 4.09579 10.2398C3.75066 10.3405 3.38909 10.3908 3.01344 10.3908C2.74931 10.3908 2.49105 10.365 2.24218 10.3147C2.7634 12.0188 4.27892 13.2614 6.07501 13.2945C4.66984 14.4462 2.90075 15.1313 0.979046 15.1313C0.648001 15.1313 0.320479 15.1129 0 15.0724C1.81605 16.2891 3.97253 17 6.28984 17C13.8381 17 17.9633 10.4608 17.9633 4.78961C17.9633 4.60299 17.9609 4.41759 17.9527 4.23465C18.7545 3.62935 19.4518 2.87303 20 2.01235C19.264 2.35368 18.4727 2.5845 17.644 2.68764Z" />
</svg>
