<?xml version="1.0" encoding="utf-8"?>
<!-- Generator: Adobe Illustrator 24.0.1, SVG Export Plug-In . SVG Version: 6.00 Build 0)  -->
<svg version="1.1" id="Layer_1" xmlns="http://www.w3.org/2000/svg" xmlns:xlink="http://www.w3.org/1999/xlink" x="0px" y="0px"
	 viewBox="0 0 66.3 61.7" style="enable-background:new 0 0 66.3 61.7;" xml:space="preserve">
<style type="text/css">
	.st0{fill:#FFFFFF;}
	.st1{fill:#00BFFF;}
</style>
<g>
	<g>
		<path class="st0" d="M60.7,24.8c2.1,3.7,2.1,8.3,0,12l-8.6,14.8c-2.1,3.7-6.1,6-10.4,6H24.6c-4.3,0-8.2-2.3-10.4-6L5.6,36.8
			c-2.1-3.7-2.1-8.3,0-12L14.2,10c2.1-3.7,6.1-6,10.4-6h17.1C46,4,50,6.3,52.1,10L60.7,24.8z"/>
	</g>
	<g>
		<path class="st0" d="M41.7,61.7H24.6c-5.7,0-11-3.1-13.9-8L2.1,38.8c-2.8-4.9-2.8-11.1,0-16L10.7,8c2.8-4.9,8.2-8,13.9-8h17.1
			c5.7,0,11,3.1,13.9,8l8.6,14.8c2.8,4.9,2.8,11.1,0,16l-8.6,14.8C52.7,58.6,47.4,61.7,41.7,61.7z M24.6,4c-4.3,0-8.3,2.3-10.4,6
			L5.6,24.8c-2.1,3.7-2.1,8.3,0,12l8.6,14.8c2.1,3.7,6.1,6,10.4,6h17.1c4.3,0,8.3-2.3,10.4-6l8.6-14.8l0,0c2.1-3.7,2.1-8.3,0-12
			L52.1,10C50,6.3,46,4,41.7,4H24.6z"/>
	</g>
</g>
<path class="st1" d="M44.5,30.8l-2-3.5l1.7-3l-1.7-1l-1.8,3h-2.9l-1.5-2.5l1.7-3l-1.7-1l-1.8,3h-2.9l-1.8-3l-1.7,1l1.7,3l-1.5,2.5
	h-2.9l-1.8-3l-1.7,1l1.7,3l-2,3.5l2,3.5l-1.7,3l1.7,1l1.8-3h2.9l1.5,2.5l-1.7,3l1.7,1l1.8-3h2.9l1.8,3l1.7-1l-1.7-3l1.5-2.5h2.9
	l1.8,3l1.7-1l-1.7-3L44.5,30.8z M34.6,29.8h-2.9l-1.5-2.5l1.5-2.5h2.9l1.5,2.5L34.6,29.8z M29.9,30.8l-1.5,2.5h-2.9l-1.5-2.5
	l1.5-2.5h2.9L29.9,30.8z M31.7,31.8h2.9l1.5,2.5l-1.5,2.5h-2.9l-1.5-2.5L31.7,31.8z M36.3,30.8l1.5-2.5h2.9l1.5,2.5l-1.5,2.5h-2.9
	L36.3,30.8z"/>
</svg>
