<svg width="24" height="24" viewBox="0 0 24 24" xmlns="http://www.w3.org/2000/svg">
<g clip-path="url(#clip0)">
<path d="M23 5H12.5L9.5 1H1C0.734784 1 0.48043 1.10536 0.292893 1.29289C0.105357 1.48043 0 1.73478 0 2L0 20C0 20.7956 0.31607 21.5587 0.87868 22.1213C1.44129 22.6839 2.20435 23 3 23H21C21.7956 23 22.5587 22.6839 23.1213 22.1213C23.6839 21.5587 24 20.7956 24 20V6C24 5.73478 23.8946 5.48043 23.7071 5.29289C23.5196 5.10536 23.2652 5 23 5ZM13.8 17.7H9C8.20435 17.7 7.44129 17.3839 6.87868 16.8213C6.31607 16.2587 6 15.4956 6 14.7C6 13.9044 6.31607 13.1413 6.87868 12.5787C7.44129 12.0161 8.20435 11.7 9 11.7C9.36 11.7 9.6 11.82 9.96 11.82C10.2915 11.0763 10.8296 10.4435 11.5104 9.99675C12.1911 9.55001 12.9858 9.30818 13.8 9.3C14.9139 9.3 15.9822 9.7425 16.7698 10.5302C17.5575 11.3178 18 12.3861 18 13.5C18 14.6139 17.5575 15.6822 16.7698 16.4698C15.9822 17.2575 14.9139 17.7 13.8 17.7V17.7Z" />
</g>
<defs>
<clipPath id="clip0">
<rect width="24" height="24" />
</clipPath>
</defs>
</svg>
