<svg width="24" height="24" viewBox="0 0 24 24" fill="none" xmlns="http://www.w3.org/2000/svg">
<path d="M23.3694 14.749L19.6274 13.249C19.4422 13.175 19.2833 13.0473 19.1712 12.8823C19.0591 12.7172 18.9989 12.5225 18.9984 12.323V11.445C19.6049 11.0969 20.1091 10.5953 20.4601 9.99056C20.8112 9.38581 20.9969 8.69927 20.9984 8V6.172C21.0212 5.08833 20.6126 4.04 19.8624 3.2576C19.1123 2.4752 18.0821 2.02283 16.9984 2C15.9147 2.02283 14.8845 2.4752 14.1344 3.2576C13.3842 4.04 12.9756 5.08833 12.9984 6.172V8C12.9999 8.69927 13.1856 9.38581 13.5367 9.99056C13.8878 10.5953 14.3919 11.0969 14.9984 11.445V12.323C14.9983 12.5228 14.9383 12.718 14.8262 12.8834C14.7141 13.0488 14.555 13.1769 14.3694 13.251L12.1914 14.123L14.1124 14.891C14.6702 15.1123 15.1484 15.4964 15.4848 15.9933C15.8212 16.4903 16.0001 17.0769 15.9984 17.677V20C15.9951 20.3414 15.9328 20.6797 15.8144 21H22.9984C23.2636 21 23.518 20.8946 23.7055 20.7071C23.8931 20.5196 23.9984 20.2652 23.9984 20V15.677C23.9983 15.4772 23.9383 15.282 23.8262 15.1166C23.7141 14.9512 23.555 14.8231 23.3694 14.749V14.749Z" fill="white"/>
<path d="M13.371 16.749L9.629 15.249C9.44375 15.175 9.28488 15.0473 9.17279 14.8823C9.0607 14.7172 9.00053 14.5225 9 14.323V13.445C9.6065 13.0969 10.1107 12.5953 10.4617 11.9906C10.8128 11.3858 10.9985 10.6993 11 10V8.172C11.0228 7.08833 10.6142 6.04 9.86402 5.2576C9.11388 4.4752 8.08367 4.02283 7 4C5.91633 4.02283 4.88612 4.4752 4.13598 5.2576C3.38584 6.04 2.97722 7.08833 3 8.172V10C3.00153 10.6993 3.18717 11.3858 3.53826 11.9906C3.88935 12.5953 4.3935 13.0969 5 13.445V14.323C4.99987 14.5228 4.93989 14.718 4.82777 14.8834C4.71566 15.0488 4.55656 15.1769 4.371 15.251L0.629 16.751C0.443754 16.825 0.284876 16.9527 0.172788 17.1177C0.0606998 17.2828 0.000525486 17.4775 0 17.677L0 20C0 20.2652 0.105357 20.5196 0.292893 20.7071C0.48043 20.8946 0.734784 21 1 21H13C13.2652 21 13.5196 20.8946 13.7071 20.7071C13.8946 20.5196 14 20.2652 14 20V17.677C13.9999 17.4772 13.9399 17.282 13.8278 17.1166C13.7157 16.9512 13.5566 16.8231 13.371 16.749Z" fill="white"/>
</svg>
