<?xml version="1.0" encoding="utf-8"?>
<!-- Generator: Adobe Illustrator 24.0.1, SVG Export Plug-In . SVG Version: 6.00 Build 0)  -->
<svg version="1.1" id="Layer_1" xmlns="http://www.w3.org/2000/svg" xmlns:xlink="http://www.w3.org/1999/xlink" x="0px" y="0px"
	 viewBox="0 0 66.3 61.7" style="enable-background:new 0 0 66.3 61.7;" xml:space="preserve">
<style type="text/css">
	.st0{fill:#FFFFFF;}
	.st1{clip-path:url(#SVGID_2_);}
	.st2{fill:#00BFFF;}
</style>
<g>
	<g>
		<path class="st0" d="M60.7,24.8c2.1,3.7,2.1,8.3,0,12l-8.6,14.8c-2.1,3.7-6.1,6-10.4,6H24.6c-4.3,0-8.2-2.3-10.4-6L5.6,36.8
			c-2.1-3.7-2.1-8.3,0-12L14.2,10c2.1-3.7,6.1-6,10.4-6h17.1C46,4,50,6.3,52.1,10L60.7,24.8z"/>
	</g>
	<g>
		<path class="st0" d="M41.7,61.7H24.6c-5.7,0-11-3.1-13.9-8L2.1,38.8c-2.8-4.9-2.8-11.1,0-16L10.7,8c2.8-4.9,8.2-8,13.9-8h17.1
			c5.7,0,11,3.1,13.9,8l8.6,14.8c2.8,4.9,2.8,11.1,0,16l-8.6,14.8C52.7,58.6,47.4,61.7,41.7,61.7z M24.6,4c-4.3,0-8.3,2.3-10.4,6
			L5.6,24.8c-2.1,3.7-2.1,8.3,0,12l8.6,14.8c2.1,3.7,6.1,6,10.4,6h17.1c4.3,0,8.3-2.3,10.4-6l8.6-14.8l0,0c2.1-3.7,2.1-8.3,0-12
			L52.1,10C50,6.3,46,4,41.7,4H24.6z"/>
	</g>
</g>
<g>
	<defs>
		<rect id="SVGID_1_" x="21.1" y="18.8" width="24" height="24"/>
	</defs>
	<clipPath id="SVGID_2_">
		<use xlink:href="#SVGID_1_"  style="overflow:visible;"/>
	</clipPath>
	<g class="st1">
		<path class="st2" d="M32.1,18.8v7h-3l4,5l4-5h-3v-7H32.1z"/>
		<path class="st2" d="M41.1,19.8H37l1.6,2h2.6c0.3,0,0.5,0.1,0.7,0.3s0.3,0.4,0.3,0.7v11h-6v3h-6v-3h-6v-11c0-0.3,0.1-0.5,0.3-0.7
			s0.4-0.3,0.7-0.3h2.6l1.6-2h-4.2c-0.8,0-1.6,0.3-2.1,0.9c-0.6,0.6-0.9,1.3-0.9,2.1v16c0,0.8,0.3,1.6,0.9,2.1s1.3,0.9,2.1,0.9h16
			c0.8,0,1.6-0.3,2.1-0.9s0.9-1.3,0.9-2.1v-16c0-0.8-0.3-1.6-0.9-2.1C42.7,20.2,41.9,19.8,41.1,19.8z"/>
	</g>
</g>
</svg>
