<?xml version="1.0" encoding="utf-8"?>
<!-- Generator: Adobe Illustrator 24.0.1, SVG Export Plug-In . SVG Version: 6.00 Build 0)  -->
<svg version="1.1" id="Layer_1" xmlns="http://www.w3.org/2000/svg" xmlns:xlink="http://www.w3.org/1999/xlink" x="0px" y="0px"
	 viewBox="0 0 66.3 61.7" style="enable-background:new 0 0 66.3 61.7;" xml:space="preserve">
<style type="text/css">
	.st0{fill:#FFFFFF;}
	.st1{fill:#00BFFF;}
</style>
<g>
	<g>
		<path class="st0" d="M60.7,24.8c2.1,3.7,2.1,8.3,0,12l-8.6,14.8c-2.1,3.7-6.1,6-10.4,6H24.6c-4.3,0-8.2-2.3-10.4-6L5.6,36.8
			c-2.1-3.7-2.1-8.3,0-12L14.2,10c2.1-3.7,6.1-6,10.4-6h17.1C46,4,50,6.3,52.1,10L60.7,24.8z"/>
	</g>
	<g>
		<path class="st0" d="M41.7,61.7H24.6c-5.7,0-11-3.1-13.9-8L2.1,38.8c-2.8-4.9-2.8-11.1,0-16L10.7,8c2.8-4.9,8.2-8,13.9-8h17.1
			c5.7,0,11,3.1,13.9,8l8.6,14.8c2.8,4.9,2.8,11.1,0,16l-8.6,14.8C52.7,58.6,47.4,61.7,41.7,61.7z M24.6,4c-4.3,0-8.3,2.3-10.4,6
			L5.6,24.8c-2.1,3.7-2.1,8.3,0,12l8.6,14.8c2.1,3.7,6.1,6,10.4,6h17.1c4.3,0,8.3-2.3,10.4-6l8.6-14.8l0,0c2.1-3.7,2.1-8.3,0-12
			L52.1,10C50,6.3,46,4,41.7,4H24.6z"/>
	</g>
</g>
<g>
	<path class="st1" d="M43,28.4c-0.2-0.3-0.5-0.6-0.9-0.6h-7.9l0.9-7.9c0-0.4-0.2-0.9-0.6-1c-0.4-0.2-0.9,0-1.2,0.3l-10,13
		c-0.2,0.3-0.3,0.7-0.1,1.1c0.2,0.3,0.5,0.6,0.9,0.6H32l-0.9,7.9c0,0.4,0.2,0.9,0.6,1c0.1,0,0.2,0.1,0.4,0.1c0.3,0,0.6-0.1,0.8-0.4
		l10-13C43.2,29.2,43.2,28.7,43,28.4z"/>
</g>
</svg>
