<svg width="24" height="24" viewBox="0 0 24 24" xmlns="http://www.w3.org/2000/svg">
<g clip-path="url(#clip0)">
<path d="M21.8983 9.55793C21.7303 9.21593 21.3823 8.99993 21.0013 8.99993H13.1183L13.9943 1.10993C14.0443 0.663929 13.7903 0.239929 13.3743 0.0719291C12.9573 -0.0980709 12.4803 0.0339291 12.2073 0.388929L2.20728 13.3889C1.97528 13.6909 1.93428 14.0989 2.10328 14.4409C2.27228 14.7839 2.62028 14.9999 3.00128 14.9999H10.8843L10.0083 22.8899C9.95828 23.3359 10.2123 23.7599 10.6283 23.9279C10.7493 23.9769 10.8763 23.9999 11.0013 23.9999C11.3053 23.9999 11.6013 23.8609 11.7943 23.6099L21.7943 10.6099C22.0263 10.3079 22.0663 9.89993 21.8983 9.55793Z" />
</g>
<defs>
<clipPath id="clip0">
<rect width="24" height="24"/>
</clipPath>
</defs>
</svg>
