<svg width="98" height="92" viewBox="8 4 74 62" fill="none" xmlns="http://www.w3.org/2000/svg">
<g filter="url(#filter0_d_6694_10769)">
<path d="M76.5359 30C78.6795 33.7128 78.6795 38.2872 76.5359 42L67.9641 56.8468C65.8205 60.5596 61.859 62.8468 57.5718 62.8468L40.4282 62.8468C36.141 62.8468 32.1795 60.5596 30.0359 56.8468L21.4641 42C19.3205 38.2872 19.3205 33.7128 21.4641 30L30.0359 15.1532C32.1795 11.4404 36.141 9.15321 40.4282 9.15321L57.5718 9.15321C61.859 9.15321 65.8205 11.4404 67.9641 15.1532L76.5359 30Z" fill="white"/>
<path d="M78.2679 43C80.7688 38.6684 80.7688 33.3316 78.2679 29L69.6962 14.1532C67.1953 9.8216 62.5735 7.15321 57.5718 7.15321L40.4282 7.15321C35.4265 7.15321 30.8047 9.8216 28.3039 14.1532L19.7321 29C17.2312 33.3316 17.2312 38.6684 19.7321 43L28.3038 57.8468C30.8047 62.1784 35.4265 64.8468 40.4282 64.8468L57.5718 64.8468C62.5735 64.8468 67.1953 62.1784 69.6962 57.8468L78.2679 43Z" stroke="white" stroke-width="4" stroke-linejoin="round"/>
</g>
<path d="M58.8983 33.5587C58.7303 33.2167 58.3823 33.0007 58.0013 33.0007H50.1183L50.9943 25.1107C51.0443 24.6647 50.7903 24.2407 50.3743 24.0727C49.9573 23.9027 49.4803 24.0347 49.2073 24.3897L39.2073 37.3897C38.9753 37.6917 38.9343 38.0997 39.1033 38.4417C39.2723 38.7847 39.6203 39.0007 40.0013 39.0007H47.8843L47.0083 46.8907C46.9583 47.3367 47.2123 47.7607 47.6283 47.9287C47.7493 47.9777 47.8763 48.0007 48.0013 48.0007C48.3053 48.0007 48.6013 47.8617 48.7943 47.6107L58.7943 34.6107C59.0263 34.3087 59.0663 33.9007 58.8983 33.5587Z" fill="#00BFFF"/>
<defs>
<filter id="filter0_d_6694_10769" x="0.856445" y="0.153198" width="96.2871" height="91.6936" filterUnits="userSpaceOnUse" color-interpolation-filters="sRGB">
<feFlood flood-opacity="0" result="BackgroundImageFix"/>
<feColorMatrix in="SourceAlpha" type="matrix" values="0 0 0 0 0 0 0 0 0 0 0 0 0 0 0 0 0 0 127 0" result="hardAlpha"/>
<feOffset dy="10"/>
<feGaussianBlur stdDeviation="7.5"/>
<feComposite in2="hardAlpha" operator="out"/>
<feColorMatrix type="matrix" values="0 0 0 0 0.640417 0 0 0 0 0.822366 0 0 0 0 0.883333 0 0 0 0.13 0"/>
<feBlend mode="normal" in2="BackgroundImageFix" result="effect1_dropShadow_6694_10769"/>
<feBlend mode="normal" in="SourceGraphic" in2="effect1_dropShadow_6694_10769" result="shape"/>
</filter>
</defs>
</svg>
