<svg width="61" height="63" viewBox="0 0 61 63" fill="none" xmlns="http://www.w3.org/2000/svg">
<path d="M59.7308 33.9749V47C59.7308 55.5604 52.7912 62.5 44.2308 62.5H16C7.4396 62.5 0.5 55.5604 0.5 47V33.8601C0.5 30.6834 2.27137 27.7718 5.09249 26.3115L25.1596 15.9238C27.8434 14.5345 31.028 14.505 33.7371 15.8443L54.9978 26.3553C57.8963 27.7882 59.7308 30.7416 59.7308 33.9749Z" fill="url(#paint0_linear)" stroke="black"/>
<path opacity="0.8" d="M17 0.5H43.2308C47.3729 0.5 50.7308 3.85787 50.7308 8V38.4615C50.7308 43.7082 46.4775 47.9615 41.2308 47.9615H19C13.7533 47.9615 9.5 43.7082 9.5 38.4615V8C9.5 3.85786 12.8579 0.5 17 0.5Z" fill="#90E3FF" stroke="black"/>
<mask id="path-3-inside-1" fill="white">
<path fill-rule="evenodd" clip-rule="evenodd" d="M4.66977 35.7029L22.1059 44.9338C26.695 47.3633 32.1778 47.4148 36.8116 45.0718L53.4561 36.656C55.9378 35.4012 58.1261 33.6764 59.9115 31.5977C60.1207 32.3614 60.2308 33.1598 60.2308 33.9749V53.9999C60.2308 58.9705 56.2013 62.9999 51.2308 62.9999H9.00001C4.02945 62.9999 0 58.9705 0 53.9999V33.86C0 33.3552 0.0422414 32.8568 0.124142 32.3689C1.46295 33.69 2.99282 34.8151 4.66977 35.7029Z"/>
</mask>
<path fill-rule="evenodd" clip-rule="evenodd" d="M4.66977 35.7029L22.1059 44.9338C26.695 47.3633 32.1778 47.4148 36.8116 45.0718L53.4561 36.656C55.9378 35.4012 58.1261 33.6764 59.9115 31.5977C60.1207 32.3614 60.2308 33.1598 60.2308 33.9749V53.9999C60.2308 58.9705 56.2013 62.9999 51.2308 62.9999H9.00001C4.02945 62.9999 0 58.9705 0 53.9999V33.86C0 33.3552 0.0422414 32.8568 0.124142 32.3689C1.46295 33.69 2.99282 34.8151 4.66977 35.7029Z" fill="url(#paint1_linear)"/>
<path d="M22.1059 44.9338L21.638 45.8176L21.638 45.8176L22.1059 44.9338ZM4.66977 35.7029L5.13766 34.8191L5.13766 34.8191L4.66977 35.7029ZM36.8116 45.0718L36.3604 44.1794L36.3604 44.1794L36.8116 45.0718ZM53.4561 36.656L53.0049 35.7636L53.0049 35.7636L53.4561 36.656ZM59.9115 31.5977L60.8759 31.3335L60.3788 29.5187L59.1528 30.9461L59.9115 31.5977ZM0.124142 32.3689L0.826532 31.6571L-0.54343 30.3052L-0.86206 32.2033L0.124142 32.3689ZM22.5738 44.05L5.13766 34.8191L4.20188 36.5867L21.638 45.8176L22.5738 44.05ZM36.3604 44.1794C32.0162 46.3759 26.8761 46.3277 22.5738 44.05L21.638 45.8176C26.514 48.399 32.3394 48.4536 37.2629 45.9642L36.3604 44.1794ZM53.0049 35.7636L36.3604 44.1794L37.2629 45.9642L53.9073 37.5485L53.0049 35.7636ZM59.1528 30.9461C57.4525 32.9259 55.3684 34.5686 53.0049 35.7636L53.9073 37.5485C56.5072 36.2339 58.7997 34.4269 60.6701 32.2492L59.1528 30.9461ZM58.947 31.8618C59.1329 32.5405 59.2308 33.25 59.2308 33.9749H61.2308C61.2308 33.0695 61.1085 32.1824 60.8759 31.3335L58.947 31.8618ZM59.2308 33.9749V53.9999H61.2308V33.9749H59.2308ZM59.2308 53.9999C59.2308 58.4182 55.649 61.9999 51.2308 61.9999V63.9999C56.7536 63.9999 61.2308 59.5227 61.2308 53.9999H59.2308ZM51.2308 61.9999H9.00001V63.9999H51.2308V61.9999ZM9.00001 61.9999C4.58173 61.9999 1 58.4182 1 53.9999H-1C-1 59.5227 3.47717 63.9999 9.00001 63.9999V61.9999ZM1 53.9999V33.86H-1V53.9999H1ZM1 33.86C1 33.4111 1.03756 32.968 1.11034 32.5344L-0.86206 32.2033C-0.953082 32.7456 -1 33.2994 -1 33.86H1ZM5.13766 34.8191C3.54722 33.9771 2.09628 32.9101 0.826532 31.6571L-0.578249 33.0807C0.829624 34.47 2.43842 35.6531 4.20188 36.5867L5.13766 34.8191Z" fill="black" mask="url(#path-3-inside-1)"/>
<rect x="15.7305" y="11.5771" width="14.3077" height="3.15385" rx="0.5" fill="white" stroke="black"/>
<rect x="15.5" y="25.5" width="20.3077" height="3.15385" rx="0.5" fill="white" stroke="black"/>
<rect x="15.7305" y="18.5" width="29.5385" height="3.15385" rx="0.5" fill="white" stroke="black"/>
<defs>
<linearGradient id="paint0_linear" x1="30.1154" y1="13.1538" x2="30.1154" y2="63" gradientUnits="userSpaceOnUse">
<stop stop-color="#396BE7"/>
<stop offset="0.447917" stop-color="#0C2E83"/>
</linearGradient>
<linearGradient id="paint1_linear" x1="30.1154" y1="12.5342" x2="30.1154" y2="62.9999" gradientUnits="userSpaceOnUse">
<stop stop-color="#3079F9"/>
<stop offset="0.489583" stop-color="#306DE9"/>
<stop offset="0.822917" stop-color="#2B61D4"/>
<stop offset="1" stop-color="#2149AC"/>
</linearGradient>
</defs>
</svg>
