<svg width="55" height="54" viewBox="0 0 55 54" fill="none" xmlns="http://www.w3.org/2000/svg">
<g filter="url(#filter0_d_7020_14152)">
<rect x="6.5" y="2" width="42" height="42" rx="14" fill="url(#paint0_linear_7020_14152)"/>
</g>
<path d="M28 23C30.4853 23 32.5 20.9853 32.5 18.5C32.5 16.0147 30.4853 14 28 14C25.5147 14 23.5 16.0147 23.5 18.5C23.5 20.9853 25.5147 23 28 23Z" fill="white"/>
<path d="M34.75 27.5H37V29.75H34.75H32.5H30.25V27.5H32.5H34.75Z" fill="white"/>
<path d="M28 28.625C28 27.3684 28.4264 26.2209 29.1228 25.2837C28.7571 25.2646 28.387 25.25 28 25.25C24.409 25.25 21.7686 26.1444 20.3084 26.8047C19.5062 27.1681 19 27.9691 19 28.85V32H29.1509C28.4387 31.0573 28 29.8974 28 28.625Z" fill="white"/>
<defs>
<filter id="filter0_d_7020_14152" x="0.5" y="0" width="54" height="54" filterUnits="userSpaceOnUse" color-interpolation-filters="sRGB">
<feFlood flood-opacity="0" result="BackgroundImageFix"/>
<feColorMatrix in="SourceAlpha" type="matrix" values="0 0 0 0 0 0 0 0 0 0 0 0 0 0 0 0 0 0 127 0" result="hardAlpha"/>
<feOffset dy="4"/>
<feGaussianBlur stdDeviation="3"/>
<feColorMatrix type="matrix" values="0 0 0 0 0 0 0 0 0 0 0 0 0 0 0 0 0 0 0.2 0"/>
<feBlend mode="normal" in2="BackgroundImageFix" result="effect1_dropShadow_7020_14152"/>
<feBlend mode="normal" in="SourceGraphic" in2="effect1_dropShadow_7020_14152" result="shape"/>
</filter>
<linearGradient id="paint0_linear_7020_14152" x1="27.5" y1="2" x2="27.5" y2="44" gradientUnits="userSpaceOnUse">
<stop stop-color="#FFC452"/>
<stop offset="1" stop-color="#F38300"/>
</linearGradient>
</defs>
</svg>
