<svg width="13" height="11" viewBox="0 0 13 11" fill="none" xmlns="http://www.w3.org/2000/svg">
<path d="M6.74219 0.894687L10.8272 4.98969H0.502188C0.369579 4.98969 0.242402 5.04236 0.148634 5.13613C0.0548658 5.2299 0.00218773 5.35708 0.00218773 5.48969C0.00218773 5.62229 0.0548658 5.74947 0.148634 5.84324C0.242402 5.93701 0.369579 5.98969 0.502188 5.98969H10.8272L6.74219 10.0847C6.66027 10.1803 6.61747 10.3034 6.62233 10.4292C6.62719 10.5551 6.67936 10.6744 6.76841 10.7635C6.85745 10.8525 6.97682 10.9047 7.10266 10.9095C7.2285 10.9144 7.35154 10.8716 7.44719 10.7897L12.7422 5.48969L7.43719 0.184686C7.39276 0.130012 7.33728 0.0853438 7.27439 0.0536079C7.21149 0.021872 7.1426 0.0037853 7.07223 0.000533103C7.00185 -0.0027191 6.93159 0.00893659 6.86603 0.0347364C6.80048 0.0605362 6.74112 0.0998977 6.69184 0.150241C6.64256 0.200585 6.60447 0.260774 6.58008 0.326864C6.55568 0.392954 6.54553 0.463453 6.55028 0.533741C6.55504 0.604028 6.57459 0.672518 6.60766 0.734721C6.64073 0.796924 6.68658 0.851437 6.74219 0.894687Z" fill="#00BFFF"/>
</svg>
