<svg width="13" height="11" viewBox="0 0 13 11" fill="none" xmlns="http://www.w3.org/2000/svg">
<path d="M6 10.0152L1.915 5.92023L12.24 5.92023C12.3726 5.92023 12.4998 5.86755 12.5936 5.77378C12.6873 5.68001 12.74 5.55283 12.74 5.42023C12.74 5.28762 12.6873 5.16044 12.5936 5.06667C12.4998 4.9729 12.3726 4.92023 12.24 4.92023L1.915 4.92023L6 0.825226C6.08191 0.729575 6.12472 0.606538 6.11986 0.4807C6.115 0.354861 6.06283 0.235492 5.97378 0.146444C5.88473 0.0573969 5.76536 0.0052309 5.63953 0.000370026C5.51369 -0.00449085 5.39065 0.0383129 5.295 0.120226L0 5.42023L5.305 10.7252C5.34943 10.7799 5.40491 10.8246 5.4678 10.8563C5.5307 10.888 5.59959 10.9061 5.66996 10.9094C5.74033 10.9126 5.8106 10.901 5.87615 10.8752C5.94171 10.8494 6.00107 10.81 6.05035 10.7597C6.09963 10.7093 6.13772 10.6491 6.16211 10.583C6.1865 10.517 6.19666 10.4465 6.1919 10.3762C6.18715 10.3059 6.1676 10.2374 6.13452 10.1752C6.10145 10.113 6.05561 10.0585 6 10.0152Z" fill="#00BFFF"/>
</svg>
