<svg width="16" height="14" viewBox="0 0 16 14" fill="none" xmlns="http://www.w3.org/2000/svg">
<path d="M15.4999 6.99591C15.4914 6.39924 15.0005 5.92105 14.4017 5.92951L4.45246 5.92951L7.78073 2.33252C8.05156 2.049 8.14678 1.64275 8.03252 1.26824C7.91826 0.893727 7.61146 0.6102 7.2306 0.525565C6.84763 0.44093 6.44984 0.569998 6.18959 0.859873L0.5 7.01284L6.18959 13.1658C6.48793 13.498 6.95977 13.6123 7.37871 13.4536C7.79766 13.297 8.07484 12.8971 8.07907 12.4506C8.08118 12.1692 7.97539 11.8984 7.78073 11.6932L4.45246 8.09617L14.4017 8.09617C14.6937 8.1004 14.9751 7.98614 15.1825 7.77879C15.3899 7.57143 15.5041 7.29002 15.4999 6.99591Z" fill="black"/>
</svg>
