<svg width="20" height="20" viewBox="0 0 20 20" xmlns="http://www.w3.org/2000/svg">
<path d="M10.0395 2.43752L10.458 11.3297L10.8758 2.43752C10.8784 2.38067 10.8694 2.3239 10.8493 2.27066C10.8292 2.21743 10.7984 2.16885 10.7589 2.12791C10.7194 2.08696 10.6719 2.0545 10.6195 2.03251C10.567 2.01052 10.5106 1.99947 10.4537 2.00002V2.00002C10.3974 2.00055 10.3419 2.0124 10.2903 2.03487C10.2388 2.05734 10.1923 2.08997 10.1537 2.1308C10.115 2.17164 10.085 2.21984 10.0654 2.27254C10.0457 2.32524 10.0369 2.38135 10.0395 2.43752V2.43752Z" stroke-linecap="round" stroke-linejoin="round"/>
<path d="M10.4583 17.1569C10.1699 17.1569 9.88795 17.0714 9.64813 16.9111C9.40831 16.7509 9.22139 16.5231 9.11101 16.2566C9.00063 15.9902 8.97175 15.697 9.02802 15.4141C9.08429 15.1312 9.22319 14.8713 9.42714 14.6674C9.63109 14.4634 9.89094 14.3245 10.1738 14.2683C10.4567 14.212 10.7499 14.2409 11.0164 14.3512C11.2829 14.4616 11.5107 14.6485 11.6709 14.8884C11.8311 15.1282 11.9167 15.4101 11.9167 15.6986C11.9167 16.0853 11.763 16.4563 11.4895 16.7298C11.216 17.0033 10.8451 17.1569 10.4583 17.1569Z" />
</svg>
