<svg width="11" height="9" viewBox="0 0 11 9" xmlns="http://www.w3.org/2000/svg">
<path d="M9.88411 0.273429C9.79483 0.184453 9.68851 0.114396 9.57153 0.067449C9.45455 0.0205015 9.32929 -0.00237274 9.20327 0.000194461C9.07724 0.00276166 8.95303 0.0307177 8.83805 0.0823902C8.72308 0.134063 8.61971 0.208391 8.53411 0.30093L4.19286 5.83218L1.57661 3.21468C1.3989 3.04908 1.16384 2.95893 0.920961 2.96321C0.678085 2.9675 0.446354 3.06589 0.274587 3.23765C0.102821 3.40942 0.00443133 3.64115 0.00014606 3.88403C-0.00413921 4.1269 0.0860142 4.36196 0.251614 4.53968L3.55911 7.84843C3.64822 7.93737 3.75432 8.00745 3.87109 8.0545C3.98787 8.10154 4.11292 8.12458 4.2388 8.12225C4.36467 8.11992 4.48878 8.09226 4.60373 8.04092C4.71869 7.98958 4.82212 7.91561 4.90786 7.82343L9.89787 1.58593C10.068 1.40905 10.162 1.17252 10.1596 0.927127C10.1573 0.681731 10.0588 0.447034 9.88536 0.273429H9.88411Z"/>
</svg>
