<!-- Generated by IcoMoon.io -->
<svg version="1.1" xmlns="http://www.w3.org/2000/svg" width="33" height="32" viewBox="0 0 33 32">
<title>download</title>
<path d="M25.455 31.709c-0.436 0-0.727-0.291-0.727-0.727v-15.709c0-0.436 0.291-0.727 0.727-0.727s0.727 0.291 0.727 0.727v15.709c0 0.291-0.291 0.727-0.727 0.727z"></path>
<path d="M25.6 31.709c-0.145 0-0.291 0-0.436-0.145l-5.964-5.527c-0.291-0.291-0.291-0.727 0-1.018s0.727-0.291 1.018 0l5.527 4.945 5.091-4.945c0.291-0.291 0.727-0.291 1.018 0s0.291 0.727 0 1.018l-5.673 5.382c-0.145 0.145-0.291 0.291-0.582 0.291z"></path>
<path d="M14.545 27.636h-9.018c-2.909 0-5.236-2.327-5.236-5.091 0-0.436 0.291-0.727 0.727-0.727h13.527c0.436 0 0.727 0.291 0.727 0.727s-0.436 0.727-0.727 0.727h-12.655c0.291 1.6 1.891 2.909 3.636 2.909h9.018c0.436 0 0.727 0.291 0.727 0.727s-0.436 0.727-0.727 0.727z"></path>
<path d="M32.727 18.182c-0.436 0-0.727-0.291-0.727-0.727v-12.8c0-1.018-1.309-3.2-1.891-3.2h-24.582c-0.436 0-1.164 1.891-1.164 3.2v12.8c0 0.436-0.291 0.727-0.727 0.727s-0.727-0.291-0.727-0.727v-12.8c0-1.018 0.582-4.655 2.618-4.655h24.582c1.891 0 3.345 3.345 3.345 4.655v12.8c0 0.436-0.291 0.727-0.727 0.727z"></path>
</svg>
