<svg width="20" height="20" viewBox="0 0 20 20" xmlns="http://www.w3.org/2000/svg">
<path d="M5.43327 13.9172L6.69527 10.7622C6.89641 10.2596 7.19749 9.80302 7.58027 9.42018L14.5003 2.50218C14.8981 2.10436 15.4377 1.88086 16.0003 1.88086C16.5629 1.88086 17.1024 2.10436 17.5003 2.50218C17.8981 2.9 18.1216 3.43957 18.1216 4.00218C18.1216 4.56479 17.8981 5.10435 17.5003 5.50218L10.5803 12.4202C10.1973 12.8032 9.74027 13.1052 9.23727 13.3062L6.08327 14.5682C5.9924 14.6046 5.89286 14.6135 5.79699 14.5938C5.70111 14.5741 5.61311 14.5267 5.54391 14.4575C5.4747 14.3883 5.42733 14.3003 5.40766 14.2045C5.38799 14.1086 5.3969 14.009 5.43327 13.9182V13.9172Z" />
<path d="M3.5 5.75C3.5 5.06 4.06 4.5 4.75 4.5H10C10.1989 4.5 10.3897 4.42098 10.5303 4.28033C10.671 4.13968 10.75 3.94891 10.75 3.75C10.75 3.55109 10.671 3.36032 10.5303 3.21967C10.3897 3.07902 10.1989 3 10 3H4.75C4.02065 3 3.32118 3.28973 2.80546 3.80546C2.28973 4.32118 2 5.02065 2 5.75V15.25C2 15.9793 2.28973 16.6788 2.80546 17.1945C3.32118 17.7103 4.02065 18 4.75 18H14.25C14.9793 18 15.6788 17.7103 16.1945 17.1945C16.7103 16.6788 17 15.9793 17 15.25V10C17 9.80109 16.921 9.61032 16.7803 9.46967C16.6397 9.32902 16.4489 9.25 16.25 9.25C16.0511 9.25 15.8603 9.32902 15.7197 9.46967C15.579 9.61032 15.5 9.80109 15.5 10V15.25C15.5 15.94 14.94 16.5 14.25 16.5H4.75C4.06 16.5 3.5 15.94 3.5 15.25V5.75Z" />
</svg>
