<svg width="8" height="12" viewBox="0 0 8 12" fill="none" xmlns="http://www.w3.org/2000/svg">
<path d="M6.84722 0.822039C6.11558 0.274013 5.19655 0 4.09012 0C3.24875 0 2.5383 0.192676 1.96134 0.578694C1.04551 1.18272 0.559044 2.20877 0.5 3.6555H2.62237C2.62237 3.23348 2.7411 2.8288 2.97728 2.43678C3.21409 2.0461 3.61585 1.85075 4.18254 1.85075C4.75886 1.85075 5.15612 2.00943 5.3724 2.32611C5.58997 2.64412 5.69843 2.99547 5.69843 3.38083C5.69843 3.71684 5.5367 4.02419 5.34095 4.30287C5.2243 4.47587 5.08097 4.6277 4.91674 4.75222C4.91674 4.75222 3.76602 5.51893 3.26094 6.13495C2.96829 6.49164 2.94198 7.027 2.91566 7.7937C2.91438 7.84837 2.93428 7.96171 3.11783 7.96171H4.76784C4.93214 7.96171 4.96615 7.8357 4.96808 7.77903C4.97963 7.50035 5.00915 7.35701 5.05857 7.19567C5.15099 6.89099 5.40385 6.62564 5.68687 6.3963L6.2709 5.97828C6.79844 5.55093 7.21881 5.20091 7.40492 4.92623C7.72196 4.47554 7.9453 3.91952 7.9453 3.25949C7.94466 2.18277 7.57885 1.3714 6.84722 0.822039ZM4.05611 9.2831C3.32512 9.25977 2.72185 9.78579 2.69874 10.6098C2.67628 11.4325 3.24939 11.9772 3.98102 11.9992C4.7441 12.0226 5.33133 11.5145 5.35507 10.6905C5.37689 9.86646 4.81983 9.30644 4.05611 9.2831Z" fill="#37393D"/>
</svg>
