<svg width="16" height="16" viewBox="0 0 16 16" xmlns="http://www.w3.org/2000/svg">
<path d="M8 0.320007C5.17751 0.320007 2.88 2.61751 2.88 5.44001C2.88 9.95626 7.56125 15.3425 7.76 15.57C7.82125 15.64 7.9075 15.68 8 15.68C8.09875 15.6738 8.17875 15.64 8.24 15.57C8.43875 15.3388 13.12 9.86001 13.12 5.44001C13.12 2.61751 10.8225 0.320007 8 0.320007ZM8 3.84001C9.06 3.84001 9.92 4.70001 9.92 5.76001C9.92 6.82001 9.06 7.68001 8 7.68001C6.94 7.68001 6.08 6.82001 6.08 5.76001C6.08 4.70001 6.94 3.84001 8 3.84001Z"/>
</svg>
