<svg width="13" height="15" viewBox="0 0 13 15" xmlns="http://www.w3.org/2000/svg">
<path fill-rule="evenodd" clip-rule="evenodd" d="M1.75 4.875C1.75 2.45875 3.70875 0.5 6.125 0.5C8.54125 0.5 10.5 2.45875 10.5 4.875V6.625C11.4665 6.625 12.25 7.4085 12.25 8.375V12.75C12.25 13.7165 11.4665 14.5 10.5 14.5H6.125H1.75C0.783502 14.5 0 13.7165 0 12.75V8.375C0 7.4085 0.783502 6.625 1.75 6.625V4.875ZM6.125 6.625H8.75V4.875C8.75 3.42525 7.57475 2.25 6.125 2.25C4.67525 2.25 3.5 3.42525 3.5 4.875V6.625H6.125Z" />
</svg>
