<svg width="20" height="20" viewBox="0 0 20 20" xmlns="http://www.w3.org/2000/svg">
<path fill-rule="evenodd" clip-rule="evenodd" d="M4.25 3C4.25 1.48122 5.48122 0.25 7 0.25H13C14.5188 0.25 15.75 1.48122 15.75 3V6.25H17C18.5188 6.25 19.75 7.48122 19.75 9V13C19.75 14.5188 18.5188 15.75 17 15.75H15.75V17C15.75 18.5188 14.5188 19.75 13 19.75H7C5.48122 19.75 4.25 18.5188 4.25 17V15.75H3C1.48122 15.75 0.25 14.5188 0.25 13V9C0.25 7.48122 1.48122 6.25 3 6.25H4.25V3ZM5.75 6.25H14.25V3C14.25 2.30964 13.6904 1.75 13 1.75H7C6.30964 1.75 5.75 2.30964 5.75 3V6.25ZM3 7.75C2.30964 7.75 1.75 8.30964 1.75 9V13C1.75 13.6904 2.30964 14.25 3 14.25H4.25V13C4.25 11.4812 5.48122 10.25 7 10.25H13C14.5188 10.25 15.75 11.4812 15.75 13V14.25H17C17.6904 14.25 18.25 13.6904 18.25 13V9C18.25 8.30964 17.6904 7.75 17 7.75H3ZM14.25 13C14.25 12.3096 13.6904 11.75 13 11.75H7C6.30964 11.75 5.75 12.3096 5.75 13V17C5.75 17.6904 6.30964 18.25 7 18.25H13C13.6904 18.25 14.25 17.6904 14.25 17V13Z" />
</svg>
