<svg width="26" height="26" viewBox="0 0 26 26" fill="none" xmlns="http://www.w3.org/2000/svg">
<path d="M17.1965 18.7778C16.9438 19.4278 16.5177 19.8612 16.0338 19.8612H9.92377C9.43266 19.8612 9.01377 19.4278 8.76099 18.7778H0.722656V20.0417C0.759621 20.5049 0.977272 20.9349 1.32861 21.2389C1.67994 21.543 2.13677 21.6966 2.60043 21.6667H23.4004C23.8641 21.6966 24.3209 21.543 24.6723 21.2389C25.0236 20.9349 25.2412 20.5049 25.2782 20.0417V18.7778H17.1965Z" fill="#35373E"/>
<path d="M20.9453 11.1223H23.112V17.3334H20.9453V11.1223Z" fill="#35373E"/>
<path d="M5.05556 7.22214H13.7222V7.1427L15.3761 4.33325H3.97222C3.67849 4.34083 3.39969 4.46433 3.19671 4.67678C2.99373 4.88923 2.88307 5.17337 2.88889 5.46714V17.3333H5.05556V7.22214Z" fill="#35373E"/>
<path d="M19.3912 0.823334L15.2601 7.94445C15.164 8.08552 15.1088 8.25044 15.1007 8.42095C15.0925 8.59146 15.1318 8.76088 15.214 8.91045C15.2963 9.06003 15.4184 9.1839 15.5667 9.26834C15.7151 9.35279 15.8839 9.39451 16.0545 9.38889H24.324C24.4946 9.39451 24.6634 9.35279 24.8117 9.26834C24.9601 9.1839 25.0822 9.06003 25.1644 8.91045C25.2467 8.76088 25.2859 8.59146 25.2778 8.42095C25.2697 8.25044 25.2145 8.08552 25.1184 7.94445L20.9873 0.823334C20.9058 0.683986 20.7893 0.568398 20.6493 0.488071C20.5093 0.407744 20.3507 0.365479 20.1892 0.365479C20.0278 0.365479 19.8692 0.407744 19.7292 0.488071C19.5892 0.568398 19.4727 0.683986 19.3912 0.823334Z" fill="#35373E"/>
</svg>
