<?xml version="1.0" encoding="utf-8"?>
<!-- Generator: Adobe Illustrator 24.0.1, SVG Export Plug-In . SVG Version: 6.00 Build 0)  -->
<svg version="1.1" id="Layer_1" xmlns="http://www.w3.org/2000/svg" xmlns:xlink="http://www.w3.org/1999/xlink" x="0px" y="0px"
	 viewBox="0 0 23 23" style="enable-background: new 0 0 23 23;" xml:space="preserve">
<title>search</title>
<g id="_x30_3_x5F_designs_x5F_solution-providers-_xD83D__xDD34_">
	<g id="solutionproviders" transform="translate(-585.000000, -275.000000)">
		<g id="search" transform="translate(586.000000, 276.000000)">
			<g id="Path">
				<rect x="15.8" y="11.3" transform="matrix(0.7071 -0.7071 0.7071 0.7071 -6.9704 16.8281)" class="st0" width="2" height="11"/>
			</g>
			<g id="Oval">
				<path class="st0" d="M8,17c-5,0-9-4-9-9c0-5,4-9,9-9c5,0,9,4,9,9C17,13,13,17,8,17z M8,1C4.1,1,1,4.1,1,8c0,3.9,3.1,7,7,7
					c3.9,0,7-3.1,7-7C15,4.1,11.9,1,8,1z"/>
			</g>
		</g>
	</g>
</g>
</svg>
