<svg width="20" height="20" viewBox="0 0 20 20" xmlns="http://www.w3.org/2000/svg">
<path fill-rule="evenodd" clip-rule="evenodd" d="M5.5 3C4.83696 3 4.20107 3.26339 3.73223 3.73223C3.26339 4.20107 3 4.83696 3 5.5V8.379C3.00014 9.04174 3.26343 9.67731 3.732 10.146L10.232 16.646C10.4642 16.8782 10.7398 17.0624 11.0431 17.1881C11.3465 17.3138 11.6716 17.3785 12 17.3785C12.3284 17.3785 12.6535 17.3138 12.9569 17.1881C13.2602 17.0624 13.5358 16.8782 13.768 16.646L16.646 13.768C16.8782 13.5358 17.0624 13.2602 17.1881 12.9569C17.3138 12.6535 17.3785 12.3284 17.3785 12C17.3785 11.6716 17.3138 11.3465 17.1881 11.0431C17.0624 10.7398 16.8782 10.4642 16.646 10.232L10.146 3.732C9.67755 3.26368 9.0424 3.00041 8.38 3H5.5ZM6 7C6.26522 7 6.51957 6.89464 6.70711 6.70711C6.89464 6.51957 7 6.26522 7 6C7 5.73478 6.89464 5.48043 6.70711 5.29289C6.51957 5.10536 6.26522 5 6 5C5.73478 5 5.48043 5.10536 5.29289 5.29289C5.10536 5.48043 5 5.73478 5 6C5 6.26522 5.10536 6.51957 5.29289 6.70711C5.48043 6.89464 5.73478 7 6 7Z" />
</svg>
