<svg width="25" height="25" viewBox="0 0 25 25" xmlns="http://www.w3.org/2000/svg">

<path id="Vector" fill-rule="evenodd" clip-rule="evenodd" d="M4.98242 17.5C4.98242 18.7426 5.98978 19.75 7.23242 19.75L17.2324 19.75C18.4751 19.75 19.4824 18.7426 19.4824 17.5L19.4824 16.5C19.4824 16.0858 19.8182 15.75 20.2324 15.75C20.6466 15.75 20.9824 16.0858 20.9824 16.5L20.9824 17.5C20.9824 19.5711 19.3035 21.25 17.2324 21.25L7.23242 21.25C5.16135 21.25 3.48242 19.5711 3.48242 17.5L3.48242 16.5C3.48242 16.0858 3.81821 15.75 4.23242 15.75C4.64664 15.75 4.98242 16.0858 4.98242 16.5L4.98242 17.5ZM7.70209 9.03033C7.4092 8.73744 7.4092 8.26256 7.70209 7.96967L11.7021 3.96967C11.8427 3.82902 12.0335 3.75 12.2324 3.75C12.4313 3.75 12.6221 3.82902 12.7628 3.96967L16.7628 7.96967C17.0556 8.26256 17.0556 8.73744 16.7628 9.03033C16.4699 9.32322 15.995 9.32322 15.7021 9.03033L12.9824 6.31066L12.9824 16.5C12.9824 16.9142 12.6466 17.25 12.2324 17.25C11.8182 17.25 11.4824 16.9142 11.4824 16.5L11.4824 6.31066L8.76275 9.03033C8.46986 9.32322 7.99499 9.32322 7.70209 9.03033Z" />

</svg>
