<svg width="25" height="24" viewBox="0 0 25 24" fill="none" xmlns="http://www.w3.org/2000/svg">
<path d="M8.08203 7.5H7.33203C6.73529 7.5 6.163 7.73705 5.74104 8.15901C5.31908 8.58097 5.08203 9.15326 5.08203 9.75V17.25C5.08203 17.8467 5.31908 18.419 5.74104 18.841C6.163 19.2629 6.73529 19.5 7.33203 19.5H14.832C15.4288 19.5 16.0011 19.2629 16.423 18.841C16.845 18.419 17.082 17.8467 17.082 17.25V9.75C17.082 9.15326 16.845 8.58097 16.423 8.15901C16.0011 7.73705 15.4288 7.5 14.832 7.5H14.082M14.082 4.5L11.082 1.5M11.082 1.5L8.08203 4.5M11.082 1.5V12.75M17.082 10.5H17.832C18.4288 10.5 19.0011 10.7371 19.423 11.159C19.845 11.581 20.082 12.1533 20.082 12.75V20.25C20.082 20.8467 19.845 21.419 19.423 21.841C19.0011 22.2629 18.4288 22.5 17.832 22.5H10.332C9.73529 22.5 9.163 22.2629 8.74104 21.841C8.31908 21.419 8.08203 20.8467 8.08203 20.25V19.5" stroke-width="1.5" stroke-linecap="round" stroke-linejoin="round"/>
</svg>
